<svg width="618" height="560" viewBox="0 0 618 560" fill="none" xmlns="http://www.w3.org/2000/svg">
<path d="M618 557.541V559.254C617.151 559.33 616.301 559.461 615.445 559.468C591.181 559.662 566.917 560 542.645 560C371.18 560 199.705 559.954 28.2208 559.862H0C0.780268 557.631 1.07028 556.554 1.51911 555.539C6.93265 543.356 15.3292 533.294 24.5128 523.873C48.6804 499.011 75.9277 477.809 104.107 457.801C124.898 443.043 146.566 429.486 167.143 414.472C177.19 407.13 185.752 397.717 194.708 388.953C196.344 387.351 197.373 384.374 197.415 382.047C197.829 355.361 198.002 328.675 198.236 301.996C198.24 301.567 198.199 301.139 198.112 300.719C194.542 284.876 190.869 269.13 182.576 254.792C179.814 249.958 177.052 247.119 171.259 246.353C158.27 244.612 149.556 236.857 146.2 224.343C144.129 216.594 143.535 208.389 142.872 200.336C142.561 196.635 141.857 193.568 139.509 190.599C135.932 186.061 132.28 181.62 132.369 175.08C132.632 155.1 132.369 135.114 132.521 115.134C132.565 105.86 134.509 96.6934 138.232 88.1997C143.307 76.5834 151.103 67.3221 161.087 59.96C164.402 57.5152 166.183 55.2776 167.171 51.2098C168.821 44.4624 171.949 38.3642 180.29 37.3283C190.13 36.099 198.243 31.3889 205.314 24.5241C210.976 18.9991 217.854 16.3816 225.843 16.3885C228.541 16.3266 231.203 15.7524 233.687 14.6965C245.356 9.91737 256.936 4.91725 268.55 0H279.688C287.014 2.45862 292.317 7.25847 294.776 14.5031C296.246 18.8402 298.746 19.448 302.523 18.4673C307.971 17.0446 313.419 15.6565 319.206 14.1647C319.613 18.8195 322.706 19.8002 326.663 20.1179C332.878 20.6221 339.203 21.0571 345.307 22.3624C353.441 24.1097 354.974 27.1968 352.598 35.0768C351.956 37.2385 352.295 39.3863 354.925 38.5714C363.75 35.8089 369.564 41.0507 375.592 45.816C378.31 47.8857 380.878 50.1451 383.277 52.5773C384.831 54.214 386.378 56.2652 386.916 58.3923C388.919 66.2171 390.5 74.1524 392.24 82.0462L392.931 81.9841C393.29 76.0032 393.621 70.0224 394.056 63.0264C396.542 68.4823 397.75 72.9438 395.865 77.8817C394.422 81.6595 393.987 85.1195 398.455 87.7922C399.974 88.7038 401.044 91.7564 400.927 93.7523C400.581 98.4158 399.816 103.039 398.641 107.565C398.116 109.692 396.501 111.55 395.375 113.532C396.065 107.813 397.578 102.482 398.282 97.0604C398.579 94.8021 397.64 91.9636 396.328 90.0298C394.836 87.8405 392.302 88.4828 392.185 91.1763C391.784 99.0977 391.708 107.061 391.881 114.968C391.964 118.477 392.958 121.964 393.531 125.459L392.509 125.901C390.182 123.373 387.862 120.839 385.197 117.931C385.017 122.883 386.039 126.564 389.402 129.672C393.027 133.028 392.855 135.197 389.264 138.56L385.929 134.762C385.929 140.245 386.191 145.052 385.874 149.831C385.183 160.55 387.213 170.287 393.897 179.086C399.483 186.441 400.864 195.164 399.863 204.266C398.02 221.117 396.21 237.969 394.298 254.813C392.544 270.235 388.58 284.993 380.743 298.55C377.705 303.806 374.446 308.868 368.314 310.843C364.523 312.066 363.211 314.662 363.336 318.302C363.791 331.548 366.429 344.325 372.471 356.183C373.735 358.655 376.103 361.259 378.596 362.302C388.953 366.604 399.311 370.838 410.021 374.153C425.322 378.911 442.267 379.27 454.655 391.501C492.936 415.443 531.225 439.385 569.52 463.326C582.363 471.324 592.679 481.193 597.209 496.193C599.591 504.08 602.581 511.787 605.246 519.592C609.482 532.248 613.733 544.898 618 557.541Z" fill="url(#paint0_linear_26_358)"/>
<defs>
<linearGradient id="paint0_linear_26_358" x1="549.537" y1="280.035" x2="-68.4633" y2="279.869" gradientUnits="userSpaceOnUse">
<stop stop-color="#C299C6"/>
<stop offset="0.15" stop-color="#A49CCC"/>
<stop offset="0.28" stop-color="#879FD2"/>
<stop offset="0.57" stop-color="#69CAE8"/>
<stop offset="0.81" stop-color="#77CBC1"/>
</linearGradient>
</defs>
</svg>
