<svg width="191" height="191" viewBox="0 0 191 191" fill="none" xmlns="http://www.w3.org/2000/svg">
<path d="M82.2988 0.500824C41.241 6.8356 9.62527 37.5349 1.15786 79.3201C-0.425977 87.0559 -0.365061 108.618 1.21877 116.476C7.31044 146.932 26.4383 172.636 53.0588 186.037C63.4147 191.275 68.2271 192.25 70.3592 189.509C71.5166 188.047 71.6384 187.072 71.6384 178.849V169.773L69.6891 170.261C68.5926 170.504 64.8158 170.687 61.2217 170.687C55.0691 170.687 54.6427 170.626 50.1958 168.373C44.3478 165.51 41.972 162.83 38.1952 154.789C35.2103 148.576 32.6518 145.409 26.8647 140.719C24.7935 139.135 24.5498 138.648 25.0981 137.673C26.0118 136.15 30.3369 135.907 33.8092 137.247C37.3423 138.587 41.3019 142.242 44.6523 147.358C47.82 152.17 51.1704 154.85 55.7392 156.19C59.4551 157.226 64.8158 156.982 68.8972 155.581C71.0902 154.85 71.3948 154.424 72.3085 151.439C73.4659 147.541 74.9888 144.373 76.5727 142.668C77.7301 141.389 77.7301 141.389 72.8568 140.658C57.0793 138.404 45.1397 130.668 39.4744 119.095C36.4895 113.004 35.2712 108.618 34.4183 100.274C33.2 88.335 35.1493 79.0156 40.6318 70.7925C43.6777 66.2851 43.7386 66.1024 43.1294 63.605C41.4238 56.7829 41.7283 49.839 43.9823 42.8951C44.896 40.0932 44.9569 40.0323 47.5154 40.0323C52.3278 40.0323 60.4907 43.2606 68.4098 48.3162C70.9683 49.8999 71.943 50.2654 73.0395 49.839C81.9942 46.428 108.798 46.428 117.752 49.839C118.849 50.2654 119.823 49.8999 122.382 48.3162C130.301 43.2606 138.464 40.0323 143.276 40.0323C145.835 40.0323 145.896 40.0932 146.81 42.8951C149.063 49.839 149.368 56.7829 147.662 63.605C147.053 66.1024 147.114 66.2851 150.099 70.7316C155.521 78.8328 157.531 87.9695 156.373 99.4818C155.216 110.933 153.023 117.451 148.089 124.395C142.058 132.861 131.519 138.526 117.996 140.597L113.062 141.328L114.219 142.607C114.889 143.338 116.168 145.531 117.143 147.541L118.849 151.196L119.153 169.834C119.458 187.133 119.519 188.656 120.615 189.813C122.747 192.189 127.864 191.032 137.733 186.037C166.364 171.601 186.71 142.181 190.487 109.837C191.583 100.639 190.852 85.2285 188.964 76.8837C180.375 38.4486 152.292 10.003 114.585 1.59723C108.31 0.135361 88.6342 -0.534668 82.2988 0.500824Z" fill="#ECECEC"/>
</svg>
