<svg width="521" height="472" viewBox="0 0 521 472" fill="none" xmlns="http://www.w3.org/2000/svg">
<path d="M521 469.928V471.371C520.284 471.435 519.568 471.546 518.846 471.552C498.39 471.715 477.935 472 457.473 472C312.92 472 168.36 471.961 23.7914 471.884H0C0.657799 470.003 0.902291 469.095 1.28067 468.24C5.84451 457.971 12.9231 449.49 20.6654 441.55C41.0397 420.595 64.0102 402.725 87.7667 385.861C105.294 373.422 123.561 361.995 140.909 349.34C149.379 343.153 156.597 335.219 164.147 327.832C165.527 326.481 166.394 323.972 166.429 322.011C166.778 299.519 166.924 277.026 167.122 254.54C167.125 254.178 167.09 253.817 167.017 253.463C164.007 240.11 160.91 226.838 153.919 214.753C151.591 210.679 149.262 208.286 144.378 207.64C133.428 206.173 126.082 199.636 123.253 189.089C121.507 182.558 121.006 175.642 120.447 168.855C120.185 165.735 119.591 163.15 117.612 160.647C114.597 156.823 111.517 153.08 111.593 147.568C111.814 130.728 111.593 113.882 111.721 97.0416C111.758 89.2249 113.396 81.4987 116.535 74.3397C120.814 64.5488 127.386 56.7429 135.803 50.5377C138.598 48.4771 140.1 46.5911 140.932 43.1626C142.323 37.4755 144.96 32.3355 151.992 31.4624C160.288 30.4263 167.127 26.4564 173.088 20.6703C177.862 16.0135 183.66 13.8074 190.395 13.8132C192.67 13.761 194.914 13.277 197.008 12.387C206.846 8.35893 216.608 4.14454 226.399 0H235.789C241.965 2.07227 246.436 6.11785 248.508 12.2241C249.748 15.8796 251.855 16.3919 255.04 15.5653C259.633 14.3662 264.226 13.1962 269.104 11.9388C269.447 15.8622 272.055 16.6887 275.391 16.9565C280.63 17.3814 285.962 17.7482 291.108 18.8483C297.965 20.321 299.258 22.923 297.255 29.5648C296.714 31.3867 296.999 33.197 299.217 32.5102C306.657 30.1818 311.558 34.5999 316.64 38.6164C318.931 40.3608 321.096 42.2651 323.119 44.3151C324.429 45.6947 325.733 47.4235 326.187 49.2164C327.875 55.8116 329.208 62.4999 330.675 69.1532L331.257 69.1009C331.56 64.0599 331.839 59.0189 332.206 53.1223C334.302 57.7208 335.32 61.4812 333.731 65.6432C332.514 68.8273 332.148 71.7436 335.914 73.9963C337.195 74.7647 338.097 77.3375 337.998 79.0198C337.707 82.9504 337.062 86.8468 336.071 90.6618C335.629 92.4546 334.267 94.0205 333.318 95.6911C333.9 90.8713 335.175 86.3775 335.768 81.8081C336.019 79.9046 335.227 77.5122 334.121 75.8823C332.864 74.037 330.727 74.5784 330.628 76.8486C330.291 83.5252 330.227 90.2368 330.372 96.9019C330.442 99.8589 331.28 102.799 331.763 105.744L330.902 106.116C328.94 103.986 326.984 101.85 324.737 99.3991C324.586 103.573 325.447 106.675 328.282 109.295C331.339 112.124 331.193 113.952 328.166 116.786L325.354 113.585C325.354 118.207 325.576 122.258 325.308 126.286C324.726 135.32 326.437 143.528 332.072 150.944C336.781 157.143 337.946 164.495 337.102 172.167C335.547 186.37 334.022 200.574 332.41 214.771C330.931 227.769 327.59 240.209 320.983 251.635C318.421 256.065 315.674 260.332 310.504 261.996C307.308 263.027 306.202 265.215 306.307 268.283C306.691 279.448 308.915 290.217 314.009 300.211C315.074 302.295 317.071 304.49 319.172 305.369C327.904 308.995 336.636 312.563 345.665 315.357C358.564 319.368 372.85 319.671 383.293 329.98C415.566 350.159 447.845 370.339 480.129 390.518C490.957 397.259 499.654 405.577 503.472 418.22C505.481 424.868 508.001 431.364 510.248 437.941C513.819 448.609 517.402 459.271 521 469.928Z" fill="url(#paint0_linear_1010_134)"/>
<defs>
<linearGradient id="paint0_linear_1010_134" x1="463.283" y1="236.029" x2="-57.7175" y2="235.889" gradientUnits="userSpaceOnUse">
<stop stop-color="#8E5A93"/>
<stop offset="0.15" stop-color="#595180"/>
<stop offset="0.28" stop-color="#475B84"/>
<stop offset="0.57" stop-color="#227F9C"/>
<stop offset="0.738433" stop-color="#0A9786"/>
</linearGradient>
</defs>
</svg>
