<svg width="194" height="123" viewBox="0 0 194 123" fill="none" xmlns="http://www.w3.org/2000/svg">
<path d="M115.8 61C113.7 66.3 112 70.9 112 71.3C112 71.7 113.5 72 115.4 72C118.8 72 118.9 71.9 119.5 66.7C119.9 63.9 120 59.3 119.8 56.5L119.5 51.5L115.8 61Z" fill="#151515"/>
<path d="M156.3 47.5999C159.5 49.2999 159.5 49.0999 157.4 58.0999C155.5 66.3999 155.7 67.2999 158.9 65.6999C162.3 63.9999 165 58.2999 165 52.9999C165 47.1999 163.8 45.9999 158.1 45.9999L153.5 46.0999L156.3 47.5999Z" fill="#151515"/>
<path d="M34.8009 33.2C26.3009 35.4 17.6009 46.9 15.0009 59.5C10.6009 80.6 17.4009 93.5 32.5009 92.5C38.9009 92.1 44.3009 89.7 47.0009 86.1C48.1009 84.7 49.4009 83 50.0009 82.3C50.5009 81.7 51.7009 79.2 52.6009 76.8C54.3009 72.4 56.7009 69.7 58.1009 70.5C58.7009 70.9 61.0009 62.8 61.0009 60.5C61.0009 60.2 56.1009 60 50.0009 60H39.1009L38.1009 63.7C36.4009 69.7 36.7009 71 39.5009 71H42.1009L40.4009 74.2C38.3009 78.4 36.2009 79.9 32.9009 80C28.5009 80 27.0009 77.2 27.0009 69.2C27.0009 61.1 29.6009 52.8 33.7009 48C37.6009 43.3 42.6009 44.1 43.6009 49.6L44.2009 53H50.6009H57.0009V49C57.0009 46.8 56.0009 42.9 54.8009 40.4C51.6009 33.5 44.2009 30.8 34.8009 33.2Z" fill="#15EC40"/>
<path d="M73.5 33.5C65.3 36.4 60.9 45 63 54C63.8 57.5 65.8 60.7 70.1 65.7C73.4 69.4 76.3 73.5 76.6 74.7C77.4 77.8 75.4 81 72.4 81C70.5 81 69.8 80.4 69.4 78C68.8 75 68.7 75 62.4 75H56V78.8C56 83.6 60.5 90.3 64.7 91.7C70.2 93.5 76.3 93.2 80.9 90.8C87.4 87.4 89.4 84.2 89.8 76.2C90.2 68.4 89.1 66 81.7 58C74.7 50.3 74.2 44.5 80.6 44.5C83 44.5 83.6 45 83.8 47.2C84.1 49.9 84.3 50 90.6 50H97V46.1C97 35.2 85.8 29.2 73.5 33.5Z" fill="#15EC40"/>
<path d="M113.402 35.2001C113.002 36.5001 107.802 48.2001 101.902 61.3001C95.9016 74.4001 90.3016 86.6001 89.5016 88.5001L88.1016 92.0001H95.1016H102.002L103.702 88.5001L105.402 85.0001H112.802H120.202L119.802 88.2001L119.502 91.5001L126.302 91.8001L133.002 92.1001V62.5001V33.0001H123.602C114.702 33.0001 114.102 33.1001 113.402 35.2001ZM120.502 66.7001L119.802 73.0001H115.402C113.002 73.0001 111.002 72.6001 111.002 72.0001C111.002 71.5001 113.102 65.7001 115.802 59.3001L120.502 47.5001L120.802 54.0001C121.002 57.6001 120.902 63.3001 120.502 66.7001Z" fill="#15EC40"/>
<path d="M148.7 35.2C148.4 36.5 146.7 43.8 145 51.5C143.2 59.2 140.5 70.9 138.9 77.6C137.3 84.3 136 90.2 136 90.8C136 91.6 138.2 92 142.5 92H148.9L149.6 88.3C150.3 84.6 150.2 84.5 145.3 81.3C143.8 80.3 144.5 80.1 149.6 80.1C155.8 80 163.8 78.1 166.2 76.1C166.9 75.5 168.9 73.9 170.7 72.5C178.2 66.5 181.6 51 177.4 42.4C174 35.6 168.3 33.1 155.9 33C149.8 33 149.2 33.2 148.7 35.2ZM164.2 46.7C169.1 51.1 163.7 67 157.3 67C154.6 67 154.6 66.5 156.5 58.5C158.5 50.1 158.4 49.3 155 48.1C150.3 46.5 151.4 45 157.2 45C160.6 45 163 45.6 164.2 46.7Z" fill="#15EC40"/>
</svg>
