<svg width="151" height="135" viewBox="0 0 151 135" fill="none" xmlns="http://www.w3.org/2000/svg">
<path d="M41.2283 0.883187C38.6251 1.78655 36.8943 2.8453 35.3607 4.51809C34.476 5.46972 33.7373 6.39384 33.7357 6.5395C33.7337 6.71429 33.5259 7.0616 33.2605 7.35001C32.4936 8.1864 31.0175 12.5403 30.5481 15.4487C29.8598 19.6948 29.6341 24.2666 30.0024 27.8253C30.1577 29.5751 30.3927 32.0251 30.525 33.2212C30.6283 34.4169 30.983 36.5769 31.317 37.9791C31.6219 39.381 31.898 40.7535 31.8947 41.0448C31.8892 41.5401 30.2792 42.2214 27.7375 42.8341C27.1241 42.9729 25.9248 43.3966 25.0463 43.7947C24.1678 44.1928 23.3194 44.5039 23.1446 44.5019C22.6785 44.4967 18.3148 46.5168 14.4464 48.5424C13.6261 48.9411 12.8039 49.5147 12.5974 49.7455C12.3614 50.0051 12.0678 50.2057 11.9222 50.2041C11.4561 50.1989 8.42919 52.5252 6.54431 54.3398C4.77724 56.0391 2.26599 59.1578 2.26047 59.6531C2.25917 59.7696 1.90051 60.5814 1.48293 61.4508C0.767215 62.9288 0.705707 63.2194 0.783636 66.6875C0.790063 68.727 0.973553 70.5646 1.14575 70.7996C1.31795 71.0346 1.63127 71.6791 1.82903 72.2349C2.73466 74.6341 5.84005 78.3398 9.36238 81.2343C10.4305 82.1202 11.3841 82.8301 11.5006 82.8314C11.6172 82.8327 11.9353 83.0402 12.1949 83.2762C13.0313 84.043 15.6367 85.558 18.8528 87.1671C22.6487 89.0449 24.2435 89.7328 28.2197 91.1173C31.2089 92.1703 31.3536 92.2593 31.2293 92.9572C31.1665 93.3644 30.8279 94.9922 30.4605 96.5906C28.5903 104.932 28.4127 115.652 30.0391 121.351C30.2634 122.14 30.9719 123.926 31.5979 125.273C33.448 129.198 36.131 131.587 40.1668 132.856C42.0539 133.46 47.1821 133.43 49.5198 132.815C53.9618 131.611 57.1502 130.481 58.0614 129.763C58.2673 129.59 58.9121 129.248 59.4685 128.992C60.0249 128.736 61.2268 128.079 62.1069 127.535C62.987 126.992 63.9254 126.449 64.1595 126.364C64.3938 126.25 65.0105 125.82 65.5394 125.418C66.0392 125.015 67.097 124.211 67.8897 123.667C68.6533 123.121 69.505 122.519 69.7403 122.318C70.6813 121.542 72.0936 120.304 73.5065 119.009L74.9492 117.656L76.8227 119.483C79.4455 122.047 87.0424 127.959 87.7415 127.967C87.8872 127.968 88.1766 128.146 88.3782 128.352C89.0987 129.06 95.7042 132.426 96.4325 132.434C96.5782 132.435 97.6816 132.768 98.8715 133.189C100.7 133.821 101.573 133.948 104.544 133.981C107.69 134.016 108.303 133.935 110.205 133.228C111.902 132.606 112.694 132.09 114.402 130.449C115.551 129.325 116.702 128.027 116.969 127.564C119.616 122.757 120.44 119.386 120.755 112.047C121.02 106.544 120.482 99.9238 119.424 95.4834L118.813 92.8252L119.426 92.6864C120.595 92.408 123.841 91.3079 125.393 90.6259C126.242 90.2566 127.061 89.9452 127.207 89.9468C127.848 89.954 136.901 85.4222 137.784 84.6454C138.019 84.4149 138.371 84.244 138.546 84.2459C138.691 84.2476 139.132 83.932 139.515 83.5284C139.898 83.1247 140.31 82.8088 140.455 82.8104C141.096 82.8176 145.809 78.2375 147.141 76.3293C149.126 73.4379 149.638 71.9285 149.824 68.3177C149.977 65.0271 149.949 64.8811 149.069 62.8027C148.558 61.6024 147.959 60.4595 147.758 60.2242C147.527 60.0176 147.356 59.6952 147.357 59.5496C147.362 59.1126 143.042 54.6359 141.482 53.4531C140.672 52.8613 139.835 52.211 139.633 52.0048C139.431 51.7986 139.055 51.6196 138.822 51.617C138.589 51.6144 138.415 51.496 138.417 51.3503C138.42 51.059 132.89 47.909 130.599 46.922C127.439 45.5175 125.234 44.6771 120.968 43.1728C119.024 42.4811 119.023 42.5393 119.906 39.1112C120.728 35.9154 121.474 29.1642 121.524 24.6196C121.658 12.6172 118.621 5.35771 112.16 2.13912C110.711 1.3946 110.187 1.33049 106.576 1.20288C102.79 1.07331 102.469 1.09888 99.575 1.96986C96.7103 2.81204 90.6491 5.51244 89.6489 6.37538C89.4133 6.60584 89.12 6.77739 89.0326 6.77642C88.7122 6.77285 85.8643 8.72237 82.8083 11.0483C80.1051 13.0869 79.2522 13.8058 76.6911 16.1664L75.8669 16.9147L75.2047 16.2081C74.1103 15.0596 71.5131 12.8164 69.0583 10.8661C67.1233 9.3295 65.6774 8.35192 62.4081 6.27603C61.1642 5.47551 57.6898 3.51387 57.515 3.51192C57.4276 3.51095 56.7317 3.21185 55.9778 2.88296C54.6157 2.22681 53.1352 1.74415 50.1142 0.923853C48.0225 0.376122 42.7784 0.346869 41.2283 0.883187ZM48.2331 7.63326C52.2734 8.49404 57.0257 10.8195 62.4028 14.6088C63.646 15.4676 64.7721 16.3833 64.8864 16.5885C65.0003 16.8229 65.2606 17.0006 65.4354 17.0025C65.581 17.0042 66.0151 17.2712 66.3614 17.5664C66.6783 17.8904 67.8604 19.0108 68.9852 20.043L71.0034 21.9593L70.0329 22.7643C69.5325 23.2249 69.0897 23.7444 69.0874 23.9484C69.0851 24.1523 68.9667 24.3258 68.821 24.3242C68.7045 24.3229 67.6139 25.447 66.4622 26.8327C65.281 28.2472 64.0409 29.7193 63.6868 30.1233C61.9152 32.2304 58.4555 36.7954 58.4526 37.0576C58.4516 37.145 57.3135 37.3071 55.9142 37.3789C52.8243 37.5193 46.2876 38.4372 42.1114 39.323C40.4175 39.6829 38.9583 39.8998 38.8712 39.8696C38.6977 39.7512 38.3929 38.3493 37.4585 33.2984C36.9083 30.3787 36.8355 29.0668 36.8987 23.386C36.9976 17.1229 37.0313 16.7154 37.7849 14.4512C39.2011 10.2423 40.6791 8.33581 43.1926 7.63541C45.0635 7.07352 45.5296 7.07871 48.2331 7.63326ZM108.944 8.36749C111.293 9.32599 112.983 11.967 114.097 16.5246C115.017 20.2642 114.922 28.7999 113.901 34.1495C112.664 40.5747 112.573 40.8942 111.905 40.7119C106.762 39.4601 96.8458 37.7473 94.4569 37.7207C93.5538 37.7106 92.8265 37.6151 92.8281 37.4694C92.8356 36.7994 84.0464 25.4552 81.8567 23.2456C81.3951 22.8326 81.0517 22.2752 81.0539 22.0712C81.0565 21.8382 81.8823 20.9442 82.8825 20.0812C83.8536 19.218 84.9716 18.2398 85.3255 17.865C85.6789 17.5193 86.1483 17.2332 86.3231 17.2351C86.4979 17.237 86.7332 17.0357 86.8232 16.8036C86.9132 16.5715 87.4133 16.1401 87.9121 15.8251C88.4401 15.5105 89.6141 14.7369 90.5826 14.1067C91.5223 13.4471 92.4021 12.9324 92.5186 12.9337C92.6351 12.935 92.8993 12.7631 93.0767 12.532C93.6969 11.7814 100.197 8.88195 102.33 8.38125C105.017 7.74105 107.407 7.73852 108.944 8.36749ZM78.8627 30.467C80.4439 32.3785 82.1969 34.554 82.7711 35.318L83.8043 36.728L75.6473 36.6372L67.4904 36.5463L68.5838 35.16C70.2379 33.1389 70.592 32.735 73.5422 29.4463C74.368 28.5523 75.1355 27.6577 75.2546 27.4259C75.3737 27.1941 75.6087 27.0219 75.7544 27.0236C75.8709 27.0249 77.2812 28.5848 78.8627 30.467ZM88.5316 43.9189C89.0835 44.0707 90.4032 45.9209 91.1421 47.5899C91.3124 47.9997 91.6564 48.4988 91.916 48.7348C92.2051 48.942 92.4054 49.2647 92.4038 49.4103C92.4019 49.5851 92.6874 50.1128 93.0314 50.6119C93.4043 51.1405 93.8911 51.9034 94.1193 52.343C94.5479 53.1053 95.4904 54.8057 96.8049 57.122C98.1187 59.4967 99.0609 61.2262 99.2599 61.6654C99.3739 61.8998 99.6587 62.4856 99.9445 62.9841C100.202 63.4532 100.8 64.6835 101.284 65.6795L102.167 67.4958L101.543 68.5377C101.216 69.1168 100.919 69.6962 100.917 69.871C100.915 70.0166 100.588 70.654 100.173 71.2903C99.7575 71.9267 99.4293 72.6223 99.4264 72.8845C99.4238 73.1176 99.305 73.3202 99.1593 73.3186C99.0137 73.3169 98.6281 73.9245 98.2701 74.678C97.9118 75.4607 97.1388 76.8506 96.5454 77.8055C94.6459 80.931 94.2892 81.568 93.7839 82.4656C93.5165 82.9288 93.0122 83.739 92.6571 84.2303C92.302 84.7217 92.0049 85.2428 92.0029 85.4176C92.0013 85.5633 91.7938 85.8815 91.5002 86.0821C91.2354 86.3123 90.8803 86.8036 90.701 87.2095C89.7762 89.1513 88.5652 90.6238 87.7476 90.7895C87.2805 90.8717 81.2492 90.8919 74.3449 90.8151L61.7889 90.6753L60.3874 88.3288C59.6439 87.0677 58.8415 85.8642 58.6107 85.6577C58.3796 85.4803 58.2081 85.187 58.2097 85.0414C58.2116 84.8666 57.9262 84.3389 57.5821 83.8398C57.2092 83.3112 56.7224 82.5483 56.4942 82.1087C56.0657 81.3464 55.1231 79.646 53.8087 77.3297C52.5233 75.0136 51.5526 73.2255 51.2963 72.6982C51.1827 72.4348 50.9263 71.9075 50.7266 71.5265C50.5557 71.1749 49.9861 70.0032 49.4449 68.89L48.5052 66.9274L49.4887 64.9572C50.0542 63.8854 50.6792 62.6978 50.8877 62.2923C51.0962 61.8867 51.3642 61.3652 51.4833 61.1335C51.9009 60.264 56.0899 52.9976 56.9196 51.754C57.0979 51.4355 57.8687 50.2495 58.6093 49.1506C59.3503 48.0226 60.0032 46.9518 60.0922 46.8071C60.2116 46.5462 61.8117 44.1458 62.1072 43.7703C62.4028 43.3948 86.9627 43.5226 88.5316 43.9189ZM52.5609 45.4704C52.2638 45.9916 51.6109 47.0623 51.1065 47.8725C50.6025 48.6536 49.8308 49.9269 49.4145 50.6798C49.0274 51.4331 48.5538 52.0979 48.3777 52.2125C48.2311 52.2983 48.0822 52.588 48.0796 52.821C48.0767 53.0832 47.7494 53.6914 47.3357 54.2112C46.922 54.7311 46.5944 55.3684 46.5915 55.6306C46.5886 55.8928 46.4397 56.1825 46.2636 56.2971C46.0878 56.3825 45.7023 56.9901 45.4333 57.5989L44.8963 58.7293L44.3292 57.3244C44.0172 56.5634 43.5922 55.4807 43.3945 54.9249C43.1967 54.3691 42.66 52.8481 42.2082 51.5611C41.7272 50.2738 41.1919 48.6362 40.9961 47.9056L40.6611 46.5908L44.7778 45.8208C47.055 45.4091 49.828 44.9447 50.9363 44.8405C52.0741 44.7075 53.0076 44.6013 53.0371 44.5725C53.0954 44.5732 52.8578 44.9784 52.5609 45.4704ZM105.548 46.41L110.344 47.4249L110.248 48.2396C110.184 48.7051 109.794 49.7788 109.405 50.6485C109.017 51.5183 108.687 52.3887 108.685 52.5635C108.681 52.8839 107.662 55.4656 106.526 58.0169L105.899 59.3793L105.414 58.4416C105.158 57.9143 104.587 56.8882 104.188 56.0971C103.759 55.3348 103.131 54.1624 102.76 53.459C101.076 50.3518 99.1026 47.0084 98.8136 46.8012C98.7272 46.7129 98.5563 46.3613 98.444 45.9813C98.2465 45.3964 98.3346 45.3391 99.4998 45.3521C100.199 45.3599 102.903 45.827 105.548 46.41ZM34.7252 51.1281C34.8925 51.8001 35.2026 52.7359 35.401 53.2334C35.6288 53.7021 36.0816 54.9017 36.3914 55.8667C37.8867 60.2537 38.0845 60.8095 38.3435 61.1037C38.458 61.2798 38.7134 61.8945 38.9112 62.4503C39.0798 63.0057 39.5336 64.1179 39.9327 64.909C40.816 66.6961 40.814 66.8709 39.9196 68.6965C38.787 70.9856 37.3517 74.2911 37.3484 74.5824C37.3468 74.7281 37.0477 75.424 36.69 76.1484C36.3618 76.844 35.9432 77.8009 35.8212 78.2948C35.5179 79.3695 33.4131 85.2314 33.2953 85.3467C33.148 85.4907 28.6487 83.9838 27.1996 83.2976C26.504 82.9693 25.7786 82.699 25.6038 82.6971C25.429 82.6951 24.791 82.4258 24.2116 82.128C23.6326 81.8011 22.1549 81.0562 20.967 80.4603C19.7794 79.8352 18.5921 79.181 18.3613 78.9745C18.1302 78.7971 17.3783 78.2934 16.7122 77.9364C16.0172 77.5499 15.4682 77.1359 15.4699 76.9902C15.4712 76.8737 15.3268 76.7555 15.152 76.7536C14.6568 76.7481 11.3685 73.7687 9.93132 72.0046C8.43656 70.1815 7.41375 67.8393 7.43062 66.3244C7.44327 65.1883 8.34448 62.7509 9.14207 61.7692C9.7626 60.9894 13.0018 57.908 14.0305 57.1036C16.558 55.1505 22.9752 51.8714 27.1285 50.4317C29.1467 49.7258 30.0825 49.4157 32.1001 48.7681L33.7085 48.2324L34.0487 49.0811C34.2474 49.5495 34.5578 50.4562 34.7252 51.1281ZM119.493 50.0616C124.776 51.8394 127.588 53.0653 132.684 55.9191C135.696 57.5842 140.921 61.8962 140.912 62.7119C140.911 62.8284 141.112 63.122 141.401 63.3292C142.093 63.9487 143.199 66.6998 143.186 67.8359C143.175 68.8264 142.066 71.6111 141.328 72.477C139.616 74.4974 136.908 76.9147 134.766 78.2893C134.121 78.69 133.533 79.1205 133.444 79.2361C133.208 79.4957 125.007 83.4251 123.486 83.9617C121.029 84.8376 117.227 86.0481 117.17 85.96C116.997 85.7833 115.925 82.6247 115.929 82.3043C115.931 82.1295 115.62 81.2811 115.221 80.4317C114.823 79.6115 114.512 78.7339 114.514 78.5009C114.517 78.2969 114.206 77.4194 113.836 76.5995C113.467 75.7505 112.757 74.0818 112.246 72.8816C111.735 71.6813 111.026 69.9835 110.627 69.1342C109.888 67.4361 109.921 67.1159 111.052 65.0016C111.439 64.2775 111.767 63.5819 111.769 63.4071C111.771 63.2615 112.129 62.4497 112.517 61.6673C112.934 60.8562 113.263 60.0732 113.265 59.8984C113.267 59.7236 113.477 59.1723 113.745 58.6509C114.34 57.4921 115.931 53.3143 116.266 52.0069C116.48 51.1352 117.17 49.3365 117.287 49.3378C117.287 49.3378 118.303 49.6696 119.493 50.0616ZM106.828 77.9783C106.94 78.4457 107.223 79.1772 107.451 79.6751C107.992 80.7591 109.123 83.8892 109.627 85.6721C109.823 86.4027 110.076 87.2213 110.19 87.4848C110.36 87.9237 110.242 88.0098 109.63 88.003C109.193 87.9981 107.325 88.2978 105.427 88.6846C103.558 89.0717 101.019 89.4804 99.794 89.5834L97.5483 89.7914L97.8772 89.0376C98.0856 88.632 98.2938 88.2555 98.4113 88.1694C98.5288 88.0833 98.8551 87.5625 99.1525 87.0123C99.4792 86.4623 99.9841 85.5939 100.31 85.1313C100.665 84.64 101.11 83.9457 101.289 83.5398C101.497 83.1342 101.973 82.2946 102.359 81.6579C102.716 81.0208 103.458 79.718 104.023 78.7628C104.558 77.8073 105.092 76.91 105.24 76.7369C105.387 76.5928 105.508 76.2154 105.512 75.8658C105.517 75.3997 105.633 75.4593 106.09 76.2219C106.405 76.7498 106.746 77.5403 106.828 77.9783ZM46.2829 78.1199C46.5107 78.5886 46.9393 79.3509 47.2549 79.7915C47.5416 80.2026 47.7692 80.7004 47.7669 80.9044C47.765 81.0791 48.0789 81.6654 48.4809 82.1943C48.8829 82.7232 49.1972 83.2803 49.1956 83.4259C49.2222 83.6593 51.0817 86.7393 51.685 87.5035C51.8291 87.6508 52.0857 88.149 52.2557 88.5879L52.5965 89.3783L50.6463 89.211C48.609 89.0135 41.0787 87.5894 40.5287 87.2628C40.1231 87.0543 40.4886 85.6307 41.8676 82.1498C42.348 80.8732 42.9184 79.3644 43.1285 78.8132C43.3386 78.262 43.7875 77.1889 44.1164 76.4351L44.7143 75.0724L45.285 76.1567C45.5698 76.7426 46.0262 77.6218 46.2829 78.1199ZM112.405 95.2304C113.974 103.522 113.999 103.814 113.806 110.688C113.621 116.892 113.556 117.474 112.802 119.767C111.928 122.409 110.916 124.291 109.738 125.444C108.766 126.394 106.396 127.3 104.997 127.285C103.541 127.239 99.5893 126.292 97.9653 125.604C96.1967 124.827 92.4316 122.803 91.8545 122.302C91.624 122.066 91.3055 121.888 91.2181 121.887C90.8976 121.883 85.9851 118.245 85.7274 117.834C85.6132 117.629 85.3238 117.451 85.1199 117.449C84.8868 117.446 84.5117 117.121 84.254 116.71C83.9964 116.3 83.6795 115.976 83.5338 115.974C83.4173 115.973 82.5511 115.264 81.6286 114.38C79.8121 112.669 79.8112 112.757 81.226 111.287C82.906 109.557 86.3026 105.429 88.9641 101.904C89.7924 100.777 90.8567 99.39 91.3293 98.8125C91.7728 98.2348 92.1587 97.5981 92.1603 97.4524C92.1625 97.2485 92.863 97.1397 93.8535 97.1508C94.7566 97.1608 97.1484 96.9252 99.162 96.6272C101.176 96.3291 103.86 95.9511 105.144 95.8197C106.428 95.6592 108.413 95.3025 109.523 95.0235C112.211 94.325 112.24 94.3254 112.405 95.2304ZM41.6408 94.6756C47.2807 95.7873 51.7602 96.449 54.6718 96.6271C56.3896 96.7336 57.786 96.924 57.7844 97.0697C57.7831 97.1862 58.0408 97.597 58.357 97.9792C58.6736 98.3324 59.6779 99.713 60.625 101.005C61.5721 102.298 62.6344 103.708 63.0083 104.15C63.3818 104.62 63.813 105.149 63.9567 105.326C64.8468 106.501 67.175 109.353 67.7509 109.971C68.125 110.383 68.7866 111.148 69.2466 111.707L70.1098 112.678L69.4615 113.341C69.1077 113.716 67.8135 114.808 66.6081 115.786C65.4027 116.763 64.1386 117.768 63.8152 118.027C63.4919 118.286 63.0219 118.63 62.7577 118.802C62.4939 118.945 61.496 119.604 60.5275 120.234C57.3867 122.326 55.2176 123.496 52.0862 124.743C50.0081 125.594 49.1021 125.846 45.9496 126.365C43.6145 126.747 40.8839 126.017 39.5005 124.662C38.9819 124.131 38.5505 123.631 38.5518 123.515C38.5531 123.398 38.2957 122.958 37.9802 122.518C37.6646 122.077 37.069 120.614 36.6473 119.24C35.9164 116.842 35.8909 116.522 35.9321 110.2C35.9954 104.519 36.098 103.151 36.7157 100.011C37.8882 94.1385 38.008 93.8485 38.7052 94.0311C39.0538 94.1224 40.3615 94.4283 41.6408 94.6756ZM83.0918 98.109C82.8846 98.398 82.3531 99.0331 81.9397 99.5238C81.526 100.044 80.935 100.795 80.61 101.199C80.2846 101.632 79.8713 102.123 79.7233 102.325C76.4462 106.193 75.3544 107.434 75.1796 107.432C74.9174 107.429 71.4055 103.602 71.4084 103.34C71.4094 103.252 71.1507 102.929 70.8342 102.576C70.5173 102.252 69.511 101.046 68.6202 99.9291L67.0115 97.8717L75.141 97.8165C79.6283 97.779 83.329 97.7328 83.388 97.6752C83.4465 97.6467 83.2986 97.849 83.0918 98.109Z" fill="#E9E9E9" fill-opacity="0.18"/>
<path d="M72.3982 53.7911C70.8221 54.0358 67.5709 55.5729 67.1847 56.2387C67.0656 56.4705 66.8015 56.6423 66.5976 56.6401C65.7233 56.6595 63.1466 60.4184 62.3911 62.8574C60.7612 67.938 62.3002 73.6366 66.2236 77.1474C69.0797 79.6849 72.0399 80.7376 75.975 80.5775C78.3942 80.4879 79.0083 80.2908 82.1125 78.8685C83.1959 78.3853 85.8764 75.7638 86.7663 74.3461C89.0798 70.6716 89.3764 64.9643 87.4408 60.8637C87.156 60.2778 86.8411 59.779 86.6954 59.7774C86.5789 59.7761 86.4643 59.6 86.4666 59.3961C86.4685 59.2213 86.0095 58.5752 85.4622 58.0155C82.697 55.1586 80.2337 53.9657 76.4779 53.72C75.0223 53.6164 73.2155 53.6545 72.3982 53.7911Z" fill="#E9E9E9" fill-opacity="0.18"/>
</svg>
