<svg width="197" height="139" viewBox="0 0 197 139" fill="none" xmlns="http://www.w3.org/2000/svg">
<path d="M8.61183 0.648147C5.51183 1.74815 1.51183 6.44815 0.511826 10.2481C-0.388174 13.5481 -0.188174 14.7481 1.81183 18.7481C6.11183 27.5481 -0.688171 26.9481 97.9118 26.9481C191.812 26.9481 189.012 27.1481 193.312 21.5481C196.612 17.4481 197.112 12.5481 194.712 7.64815C190.712 -0.651853 197.912 -0.0518528 98.4118 0.0481472C49.9118 0.0481472 9.41183 0.348147 8.61183 0.648147Z" fill="white"/>
<path d="M6.81194 57.9482C4.81194 59.2482 2.71194 61.7482 1.51194 64.4482C-1.08806 70.3482 0.111945 75.4482 5.11195 79.8482L8.71194 82.9482H98.3119H187.812L191.612 79.1482C198.412 72.3482 197.612 63.4482 189.712 58.2482L186.312 55.9482H98.2119C11.5119 55.9482 10.0119 55.9482 6.81194 57.9482Z" fill="white"/>
<path d="M9.31187 112.948C5.31187 114.148 3.51187 115.848 1.41187 120.648C-1.38813 126.948 0.611871 133.148 6.61187 137.248C8.91187 138.848 15.8119 138.948 97.9119 138.948C197.912 138.948 191.212 139.448 194.812 131.348C197.012 126.248 196.612 122.248 193.312 117.548C189.212 111.748 192.412 111.948 98.4119 112.048C50.9119 112.048 10.8119 112.548 9.31187 112.948Z" fill="white"/>
</svg>
