<svg width="36" height="49" viewBox="0 0 36 49" fill="none" xmlns="http://www.w3.org/2000/svg">
<path d="M10.7187 26.358C4.57786 32.5332 3.2056 34.1456 2.03919 36.3069L0.666931 38.8799L9.92966 29.6172C18.9866 20.5946 19.1924 20.3544 18.6092 19.6683C18.3004 19.2909 18.026 18.9822 18.026 18.9822C18.026 18.9822 14.7326 22.3099 10.7187 26.358Z" fill="#EAEAEA"/>
<path d="M5.67569 29.4454C5.36693 29.9943 5.22971 30.4746 5.29832 30.4746C5.40124 30.4746 5.71 29.9943 6.01876 29.4454C6.32751 28.8622 6.46474 28.4162 6.39613 28.4162C6.29321 28.4162 5.98445 28.8622 5.67569 29.4454Z" fill="#EAEAEA"/>
<path d="M6.56756 0.696333C6.39602 1.14232 5.95004 3.64668 5.53836 6.28827C5.12669 8.92987 4.57778 12.3948 4.30333 14.0072C4.06319 15.6196 3.27414 20.4568 2.62232 24.8137C1.93619 29.1363 1.14714 34.0765 0.872692 35.7575C0.59824 37.4385 0.426708 38.8794 0.461015 38.948C0.529628 38.9823 1.21576 37.8502 2.0048 36.375C3.20553 34.1108 4.44056 32.7042 10.7872 26.3575C17.8201 19.2904 18.1631 19.016 18.6434 19.6678C19.158 20.3196 19.2609 20.2853 21.3879 18.124L23.6178 15.8941L21.3193 11.7087C20.0843 9.41016 18.8492 7.31747 18.6434 7.11163C18.0259 6.49411 17.1682 7.38608 15.9675 9.89045C15.4186 11.0226 14.8354 11.9145 14.6639 11.8459C14.3208 11.743 14.115 11.3999 10.6843 5.08755C9.17484 2.34304 7.73397 0.0788176 7.42522 0.0102048C7.11646 -0.058408 6.73909 0.216043 6.56756 0.696333ZM6.01865 29.4451C5.70989 29.994 5.40114 30.4743 5.29822 30.4743C5.22961 30.4743 5.36683 29.994 5.67559 29.4451C5.98435 28.8619 6.2931 28.4159 6.39602 28.4159C6.46464 28.4159 6.32741 28.8619 6.01865 29.4451Z" fill="#EAEAEA"/>
<path d="M15.4186 24.6081C7.3566 32.7045 0.666855 39.257 0.563936 39.1541C0.461017 39.0168 0.358098 39.0854 0.358098 39.257C0.358098 39.6687 0.083646 39.4971 9.34637 44.6431C14.2179 47.3876 17.477 49 18.0945 49C18.6777 49 22.2456 47.2504 27.4258 44.3686C32.0572 41.83 35.8652 39.6687 35.9338 39.6C36.0025 39.5314 35.5908 36.5811 35.0076 33.0132C33.0521 20.9717 32.2974 16.2374 31.92 13.8359C31.4397 10.7141 31.3025 10.3367 30.6507 10.0965C30.239 9.92501 26.1908 13.7673 15.4186 24.6081Z" fill="white"/>
<path d="M12.0908 27.4898C5.84707 33.7336 0.701111 39.0168 0.701111 39.154C0.701111 39.2912 5.88138 34.2139 12.1938 27.8672C22.4857 17.5753 23.9265 16.0658 23.5835 16.0658C23.5492 16.0658 18.3689 21.2118 12.0908 27.4898Z" fill="#EAEAEA"/>
</svg>
