<svg width="35" height="35" viewBox="0 0 35 35" fill="none" xmlns="http://www.w3.org/2000/svg">
<path d="M16.5262 0.0201199C14.0535 0.179774 11.7988 0.78724 9.63378 1.86977C8.45389 2.45777 7.33631 3.19763 6.22652 4.11272C5.72419 4.52938 4.52484 5.72874 4.10818 6.23106C1.94311 8.85173 0.654193 11.7333 0.17523 15.0315C0.0428341 15.9466 0 16.5463 0 17.5042C0.00389401 20.6817 0.841106 23.7307 2.45712 26.4527C4.15101 29.2992 6.68601 31.6628 9.63378 33.1387C11.6431 34.1433 13.7108 34.7274 16.0589 34.9533C16.6858 35.0156 18.3135 35.0156 18.9405 34.9533C21.3431 34.7235 23.329 34.1589 25.4162 33.1114C27.737 31.951 29.906 30.1247 31.522 27.9791C33.2743 25.6466 34.3958 22.9208 34.8241 19.9574C34.9565 19.0462 34.9955 18.4855 34.9955 17.5042C34.9955 15.8376 34.7891 14.3267 34.3452 12.7613C33.7572 10.6819 32.8148 8.75828 31.5648 7.08775C30.5758 5.76768 29.2985 4.48265 28.033 3.52473C25.4006 1.54268 22.3049 0.358899 18.9794 0.062954C18.3135 0.00064984 17.122 -0.0188202 16.5262 0.0201199ZM18.9911 2.84717C21.5611 3.10028 24.0805 4.0621 26.1638 5.58466C28.0758 6.98261 29.6139 8.79722 30.6692 10.9C31.2533 12.0682 31.6778 13.2753 31.9231 14.4942C32.6513 18.0689 32.0788 21.6825 30.2798 24.8444C29.0805 26.955 27.1763 28.8903 25.0579 30.1559C24.248 30.6387 23.0564 31.1956 22.2893 31.4409C22.0868 31.5071 21.9077 31.5616 21.8921 31.5616C21.8765 31.5616 21.861 30.9074 21.861 30.1091C21.861 29.3109 21.8415 28.5165 21.822 28.3451C21.7052 27.4067 21.382 26.7447 20.7629 26.1723C20.5876 26.0087 20.4708 25.8763 20.502 25.8763C20.6149 25.8763 21.6195 25.7245 21.9194 25.6622C23.3446 25.374 24.6179 24.8756 25.4629 24.2798C25.9185 23.9566 26.6467 23.2245 26.9465 22.7806C27.6007 21.8227 27.9512 20.857 28.177 19.4123C28.251 18.9255 28.2627 18.6919 28.2627 17.7184C28.2666 16.6242 28.2627 16.5736 28.1537 16.0868C27.9239 15.0276 27.4761 14.1009 26.8102 13.3104L26.5727 13.03L26.6506 12.8353C26.9388 12.0954 26.9972 10.8416 26.783 9.79408C26.7246 9.50982 26.4832 8.73491 26.4208 8.63367C26.4014 8.60252 26.2651 8.57526 26.0431 8.55968C25.5992 8.53242 25.093 8.64924 24.3025 8.96076C23.6522 9.21777 23.1382 9.48256 22.3711 9.96152L21.8103 10.312L21.5339 10.2458C20.245 9.93037 18.8392 9.75514 17.5776 9.75514C16.5262 9.75514 15.1633 9.89922 14.2287 10.1134C13.9406 10.1796 13.6251 10.2497 13.5278 10.2692L13.3526 10.3081L12.8463 9.98489C12.2778 9.61885 11.2809 9.10484 10.7202 8.88678C10.14 8.65703 9.06915 8.48569 8.82382 8.57526C8.71479 8.61809 8.6447 8.79332 8.4461 9.50593C8.26698 10.1523 8.21636 10.6079 8.24362 11.3439C8.26309 11.9592 8.36044 12.5004 8.52399 12.882L8.5824 13.0261L8.37601 13.2714C7.69067 14.0814 7.2117 15.0588 6.98585 16.1218C6.87682 16.6242 6.83788 17.9871 6.90408 18.8009C7.02479 20.195 7.43366 21.5579 8.00608 22.473C8.98737 24.0384 10.4204 24.9846 12.64 25.5259C13.0683 25.631 13.9912 25.7985 14.4896 25.8569L14.6921 25.8841L14.33 26.2385C13.925 26.6396 13.703 26.9783 13.5512 27.4378C13.3603 28.0064 13.3331 28.3335 13.3331 30.0312C13.3331 30.8918 13.3214 31.6044 13.3058 31.6122C13.2669 31.6356 12.4063 31.3474 11.9118 31.1449C8.98737 29.9534 6.38228 27.6987 4.79742 24.9807C3.34106 22.4886 2.64403 19.6537 2.78422 16.8228C2.9867 12.664 4.83246 8.9374 8.02166 6.22717C9.86352 4.66178 12.2428 3.51305 14.5792 3.06134C16.1523 2.75761 17.4452 2.6953 18.9911 2.84717Z" fill="#949494"/>
</svg>
