<svg width="30" height="30" viewBox="0 0 30 30" fill="none" xmlns="http://www.w3.org/2000/svg">
<path d="M10.7326 0.0161472C7.70048 0.156902 7.00257 0.244874 5.9469 0.585033C2.99105 1.55859 0.979421 3.85172 0.328429 7.00112C0.0058648 8.55529 0 8.70191 0 14.9948C0 21.2878 0.0058648 21.4344 0.328429 22.9886C0.979421 26.138 2.99105 28.4311 5.9469 29.4046C7.34859 29.8621 8.53914 29.9501 13.8644 29.9911C19.0137 30.0322 21.7349 29.9325 23.0662 29.6568C25.2362 29.2052 27.1716 27.9326 28.3152 26.2201C29.1656 24.9415 29.5996 23.6396 29.8635 21.6103C29.9574 20.9183 29.9691 20.191 29.9691 14.9948C29.9691 8.70191 29.9632 8.55529 29.6407 7.00112C29.0777 4.29158 27.5528 2.25063 25.1952 1.06595C24.0398 0.485331 22.8727 0.21555 21.0546 0.0923896C20.1456 0.0337416 11.7061 -0.0307712 10.7326 0.0161472ZM19.5298 2.45004C20.4681 2.47936 21.4769 2.53801 21.7819 2.56733C23.3008 2.73155 24.5266 3.27697 25.5353 4.23294C26.8021 5.43522 27.3769 6.96007 27.5352 9.58163C27.6115 10.8602 27.6115 19.1295 27.5352 20.408C27.3769 23.0062 26.808 24.5369 25.5646 25.7333C24.5383 26.7127 23.2774 27.2699 21.7173 27.4223C19.2424 27.6745 10.756 27.6745 8.25177 27.4223C6.69173 27.2699 5.4308 26.7127 4.40446 25.7333C3.16699 24.5427 2.5981 23.0296 2.43976 20.4432C2.35765 19.194 2.35765 10.7956 2.43976 9.54644C2.53946 7.89257 2.79164 6.77239 3.26083 5.8223C4.1816 3.96902 5.97036 2.7902 8.21071 2.56733C10.2282 2.36207 15.5417 2.30928 19.5298 2.45004Z" fill="#949494"/>
<path d="M22.2686 5.49985C21.6352 5.81068 21.3185 6.34438 21.3185 7.07748C21.3185 7.81057 21.6352 8.34427 22.2686 8.65511C22.5735 8.81345 22.6908 8.83691 23.0779 8.83691C23.465 8.83691 23.5823 8.81345 23.8873 8.65511C24.5207 8.34427 24.8374 7.81644 24.8374 7.07161C24.8374 6.03354 24.116 5.31804 23.0721 5.31804C22.6908 5.31804 22.5735 5.3415 22.2686 5.49985Z" fill="#949494"/>
<path d="M13.5771 7.75784C10.5977 8.2974 8.20491 10.7137 7.67708 13.7047C7.56565 14.3499 7.56565 15.6401 7.67708 16.2853C8.1404 18.901 10.0641 21.1354 12.58 21.9741C13.6123 22.3201 15.1606 22.4316 16.2221 22.238C18.527 21.8099 20.4682 20.3613 21.4887 18.3145C22.0458 17.1943 22.257 16.2794 22.257 14.995C22.257 13.7106 22.0458 12.7957 21.4887 11.6755C20.4682 9.62871 18.527 8.1801 16.2221 7.75197C15.618 7.64054 14.1987 7.64641 13.5771 7.75784ZM15.835 10.1331C17.4302 10.4146 18.9258 11.6462 19.5122 13.1535C19.8055 13.91 19.8641 14.2912 19.8407 15.1709C19.8172 15.8747 19.7937 16.0272 19.6237 16.5198C19.2952 17.4934 18.7205 18.3086 17.9698 18.8716C17.3716 19.3232 17.0959 19.4757 16.4625 19.6868C14.7031 20.2733 12.7736 19.81 11.4423 18.4787C10.8734 17.9157 10.4922 17.294 10.2224 16.5198C10.0347 15.9803 10.0289 15.9392 10.0289 14.995C10.0289 14.0508 10.0347 14.0097 10.2224 13.4702C10.4922 12.696 10.8734 12.0743 11.4423 11.5113C12.6094 10.3383 14.1929 9.84571 15.835 10.1331Z" fill="#949494"/>
</svg>
