<svg width="30" height="31" viewBox="0 0 30 31" fill="none" xmlns="http://www.w3.org/2000/svg">
<path d="M2.56108 0.782386C1.90983 0.99459 1.52933 1.22143 1.0537 1.69706C0.343917 2.40684 0 3.23371 0 4.22887C0 5.69966 0.782959 6.95093 2.10009 7.57291C2.61962 7.8217 2.7367 7.85097 3.41721 7.87292C4.33189 7.90951 4.94654 7.74853 5.62706 7.29485C6.19782 6.91435 6.54173 6.51189 6.84906 5.87528C7.38323 4.77035 7.3686 3.65811 6.81979 2.54587C6.57832 2.05561 5.87585 1.33851 5.37095 1.06776C4.58068 0.643356 3.37331 0.518961 2.56108 0.782386Z" fill="#949494"/>
<path d="M21.7692 10.1266C19.4643 10.4559 17.8398 11.3925 16.8373 12.9804L16.6105 13.3316V11.9633V10.5949H13.6104H10.6102V20.6197V30.6445H13.7567H16.8959L16.9178 24.7321C16.9471 18.9441 16.9471 18.8123 17.1007 18.2635C17.5617 16.6391 18.4545 15.8195 19.9618 15.6586C21.9156 15.439 23.0864 16.2439 23.54 18.1099C23.6498 18.5489 23.6644 19.3172 23.6864 24.6223L23.7156 30.6445H26.8621H30.0086L29.9793 23.8174C29.95 17.905 29.9354 16.9025 29.8257 16.3098C29.4305 14.0341 28.6768 12.4974 27.4841 11.5316C26.7011 10.9023 25.7499 10.4925 24.5352 10.273C23.9278 10.1559 22.179 10.0681 21.7692 10.1266Z" fill="#949494"/>
<path d="M0.439087 20.6197V30.6445H3.58556H6.73203V20.6197V10.5949H3.58556H0.439087V20.6197Z" fill="#949494"/>
</svg>
