<svg width="32" height="23" viewBox="0 0 32 23" fill="none" xmlns="http://www.w3.org/2000/svg">
<path d="M1.92623 0.781942C1.16012 1.0206 0.510744 1.59917 0.167816 2.3513L0 2.70568V11.6373V20.5689L0.167816 20.9233C0.51804 21.6827 1.16741 22.254 1.94812 22.4999C2.26186 22.5939 2.61209 22.6301 3.1812 22.6301H3.9765L3.9911 14.7399L4.01298 6.84966L9.9522 11.5216C13.221 14.089 15.9279 16.1935 15.9717 16.1935C16.0155 16.1935 18.6494 14.2047 21.816 11.7747L27.5802 7.35591L27.602 15.0002L27.6166 22.6445L28.733 22.6156C29.7472 22.5939 29.8785 22.5722 30.2652 22.3986C31.097 22.0153 31.7537 21.1909 31.9215 20.323C32.0309 19.7589 32.0236 3.45781 31.9142 2.94433C31.6223 1.54854 30.4184 0.644532 28.8643 0.644532H28.4411L22.7938 5.38878C19.6855 7.99956 16.964 10.2921 16.7451 10.4802L16.3438 10.8273L10.0762 5.73592L3.81598 0.644532L3.07176 0.651764C2.57561 0.651764 2.20349 0.695156 1.92623 0.781942Z" fill="#949494"/>
</svg>
