<svg width="81" height="80" viewBox="0 0 81 80" fill="none" xmlns="http://www.w3.org/2000/svg">
<g clip-path="url(#clip0_742_178)">
<path d="M40.0392 2.55612C38.6148 2.35369 37.5568 2.4209 36.4415 2.80404C35.8013 3.0192 35.2355 3.2559 35.1994 3.31969C35.1562 3.39623 34.9759 3.50129 34.7831 3.56712C34.2254 3.75869 32.4876 5.3361 31.566 6.50893C30.2191 8.22057 29.0077 10.1823 28.3166 11.8348C27.9648 12.6414 27.4805 13.7748 27.2522 14.3322C27.0105 14.8827 26.6518 15.9159 26.467 16.6106C26.2687 17.2984 26.0643 17.9667 25.9923 18.0942C25.8698 18.3111 24.9591 18.2399 23.6336 17.9236C23.3159 17.8433 22.6579 17.7534 22.1546 17.7261C21.6513 17.6989 21.1831 17.6403 21.1026 17.5991C20.888 17.4893 18.3778 17.3727 16.0957 17.3728C15.6192 17.3593 15.0995 17.4223 14.948 17.4764C14.7759 17.5363 14.5913 17.557 14.5242 17.5227C14.3096 17.4129 12.3444 17.7395 11.0321 18.1041C9.80223 18.4451 7.88403 19.2397 7.76156 19.4566C7.73275 19.5076 7.37007 19.7825 6.96616 20.0692C6.27683 20.5551 6.17796 20.669 5.37437 22.2146C4.88352 23.1144 4.52358 23.9662 4.54644 24.1094C4.56929 24.2527 4.55836 24.6088 4.51539 24.8992C4.35393 26.1649 4.89498 28.5134 5.82553 30.6007C6.10574 31.2373 6.37551 31.7699 6.42917 31.7973C6.48283 31.8248 6.57995 31.9895 6.64305 32.1534C6.84476 32.684 7.68464 33.9522 8.7846 35.4027C10.088 37.1053 10.6601 37.7761 12.1665 39.3029C13.296 40.4561 13.3414 40.5287 13.1149 40.8075C12.9872 40.9723 12.4362 41.6113 11.8791 42.2306C8.99332 45.4735 6.31551 50.1545 5.68879 53.0401C5.6016 53.4395 5.49752 54.3892 5.46126 55.127C5.36787 57.2825 6.03187 58.954 7.59388 60.4435C8.32172 61.1447 10.7042 62.314 11.9358 62.5822C14.2845 63.0766 16.0348 63.3142 16.6308 63.2079C16.7679 63.1794 17.1494 63.1773 17.4691 63.1928C17.7888 63.2084 18.5045 63.1963 19.0438 63.1597C19.5831 63.1232 20.1492 63.1004 20.2781 63.117C20.4143 63.1208 20.804 63.0736 21.1463 63.0185C21.4752 62.9565 22.1598 62.8463 22.6589 62.7892C23.1445 62.7252 23.6848 62.6562 23.8425 62.6218C24.4663 62.4969 25.4199 62.2777 26.388 62.033L27.3839 61.7696L27.8091 63.0065C28.4031 64.7408 30.4903 69.0969 30.8122 69.2615C30.8793 69.2958 30.9702 69.441 31.0137 69.5783C31.1761 70.056 33.4205 73.062 33.7559 73.2336C33.8229 73.2679 34.2534 73.6689 34.7025 74.1288C35.3964 74.829 35.77 75.0859 37.1382 75.7858C38.5869 76.5268 38.8902 76.6326 39.9422 76.7596C40.8787 76.8769 41.3706 76.8326 42.5592 76.5034C43.3633 76.2734 44.2106 75.9669 44.4466 75.8245C46.8363 74.3175 48.0341 73.0229 49.9568 69.8629C51.4122 67.4997 52.7658 64.4597 53.351 62.2598L53.7114 60.9479L54.0292 61.0282C54.6378 61.1751 56.4077 61.4392 57.2915 61.4967C57.7742 61.5298 58.229 61.5816 58.2961 61.6159C58.5912 61.7668 63.8815 61.8586 64.4785 61.72C64.6434 61.6728 64.8476 61.6786 64.9281 61.7198C64.9952 61.7541 65.2756 61.7166 65.5509 61.6272C65.8261 61.5378 66.0931 61.4936 66.1602 61.5279C66.4553 61.6788 69.747 60.7482 70.8261 60.215C72.4452 59.3989 73.0478 58.8522 74.0081 57.3046C74.8758 55.8904 74.8984 55.8198 74.9941 54.7013C75.048 54.0547 75.0472 53.4131 75.011 53.263C74.9541 53.1188 74.9528 52.9373 74.9888 52.8735C75.0969 52.6822 74.1798 49.7138 73.7435 48.833C73.512 48.3857 73.2815 47.9061 73.238 47.7688C73.1946 47.6314 73.0634 47.4657 72.9561 47.4108C72.8488 47.3559 72.7971 47.2637 72.8331 47.1999C72.9052 47.0724 71.1067 44.4095 70.2847 43.4465C69.1611 42.099 68.3433 41.2203 66.7317 39.5738C65.9986 38.8207 65.9842 38.8462 67.2232 37.5398C68.3778 36.3217 70.3576 33.5198 71.4814 31.5297C74.4494 26.2736 74.8006 22.3756 72.5873 19.4677C72.0967 18.8057 71.8696 18.6566 70.2279 17.7676C68.5057 16.8373 68.3509 16.7746 66.7996 16.4908C65.2689 16.2011 61.8078 15.9928 61.1356 16.1422C60.9707 16.1894 60.7933 16.1973 60.7531 16.1767C60.6055 16.1012 58.8145 16.3032 56.8359 16.623C55.0904 16.8975 54.5212 17.0175 52.7635 17.4666L52.2006 17.6062L52.065 17.1422C51.8362 16.384 51.1764 14.7969 50.5117 13.3717C49.9875 12.2486 49.5545 11.4845 48.543 9.81613C48.1607 9.17664 47.0265 7.51128 46.946 7.47011C46.9057 7.44953 46.6558 7.15728 46.3863 6.83855C45.9143 6.2354 45.3455 5.68135 44.1449 4.62332C43.3087 3.89967 40.887 2.67738 40.0392 2.55612ZM41.6492 7.14489C43.312 8.45583 44.95 10.5762 46.523 13.4853C46.8909 14.1504 47.1907 14.8134 47.1939 14.9302C47.19 15.0597 47.2675 15.198 47.3479 15.2391C47.415 15.2735 47.5514 15.4912 47.6403 15.7011C47.7086 15.9169 47.9849 16.683 48.2559 17.3971L48.7266 18.7066L48.0823 18.8374C47.739 18.9249 47.4081 19.0516 47.3577 19.1409C47.3072 19.2302 47.2103 19.2793 47.1433 19.245C47.0896 19.2176 46.3123 19.4612 45.4434 19.806C44.5539 20.1567 43.6231 20.5191 43.3613 20.6154C42.0305 21.135 39.3229 22.3479 39.2581 22.4627C39.2364 22.501 38.6701 22.3099 38.0046 22.0189C36.5395 21.3681 33.2898 20.2649 31.141 19.692C30.2694 19.4599 29.541 19.2189 29.508 19.1855C29.4563 19.0933 29.6546 18.4055 30.4447 15.9652C30.8968 14.5522 31.1808 13.9575 32.5855 11.4698C34.1477 8.73381 34.262 8.56207 35.1592 7.73852C36.8342 6.21117 37.9804 5.71225 39.3141 5.98339C40.3167 6.16737 40.5313 6.27715 41.6492 7.14489ZM69.5897 21.4695C70.4458 22.4335 70.5889 23.9865 70.0016 26.2511C69.5222 28.1105 67.4115 31.8484 65.6433 33.9694C63.5147 36.5143 63.3953 36.6341 63.13 36.3997C61.051 34.6622 56.873 31.6208 55.7731 31.0582C55.3572 30.8455 55.0435 30.6357 55.0795 30.5719C55.2452 30.2785 53.9211 23.2545 53.4419 21.7762C53.3282 21.4878 53.3041 21.1631 53.3545 21.0738C53.4121 20.9718 54.011 20.7684 54.6832 20.619C55.342 20.4627 56.0967 20.2896 56.3513 20.2061C56.5987 20.1354 56.8854 20.1176 56.9659 20.1587C57.0463 20.1999 57.2041 20.1655 57.302 20.084C57.3998 20.0026 57.7359 19.9278 58.0432 19.9041C58.3639 19.8873 59.095 19.8173 59.6961 19.7631C60.2911 19.6892 60.8231 19.6654 60.8768 19.6929C60.9305 19.7203 61.0944 19.7055 61.2325 19.6446C61.7015 19.457 65.4142 19.679 66.5231 19.9502C67.9229 20.2881 69.0301 20.8379 69.5897 21.4695ZM50.3068 24.2667C50.5763 25.4733 50.8615 26.8359 50.9425 27.3048L51.0796 28.1642L47.3237 26.243L43.5677 24.3218L44.4098 23.9634C45.6653 23.4546 45.9271 23.3583 48.0897 22.5901C48.6886 22.3867 49.2607 22.1696 49.372 22.095C49.4833 22.0204 49.6338 21.9988 49.7009 22.0331C49.7546 22.0605 50.0301 23.0729 50.3068 24.2667ZM51.528 32.4219C51.7469 32.6161 51.9101 33.7354 51.8482 34.641C51.8279 34.8608 51.8664 35.16 51.9295 35.3238C52.0132 35.4817 52.0278 35.6701 51.9918 35.7338C51.9486 35.8104 51.9531 36.1086 51.9916 36.4079C52.0363 36.7267 52.077 37.175 52.0763 37.4213C52.0902 37.8559 52.115 38.8222 52.163 40.1457C52.1965 41.4947 52.2142 42.4738 52.2 42.7132C52.196 42.8427 52.1861 43.1665 52.1978 43.452C52.2033 43.7178 52.1824 44.3977 52.1655 44.9481L52.1347 45.9518L51.5937 46.267C51.302 46.4466 51.0238 46.6332 50.9806 46.7097C50.9446 46.7735 50.6385 46.9787 50.2923 47.1633C49.946 47.3479 49.6255 47.5786 49.5607 47.6934C49.5031 47.7955 49.399 47.8574 49.3319 47.823C49.2649 47.7887 48.9392 47.9674 48.5909 48.2168C48.2355 48.4789 47.5409 48.9129 47.0349 49.1967C45.3984 50.1353 45.0789 50.3337 44.6276 50.6125C44.3916 50.7549 43.9618 50.9954 43.6784 51.13C43.395 51.2645 43.1312 51.4255 43.0879 51.5021C43.0519 51.5659 42.8788 51.6582 42.6942 51.6789C42.5159 51.7192 42.2324 51.8537 42.0511 51.9911C41.1526 52.6332 40.2352 53.0025 39.8164 52.8869C39.5802 52.8154 36.7818 51.4334 33.6027 49.8072L27.8212 46.85L27.7402 45.4932C27.7012 44.7662 27.621 44.0511 27.5641 43.9069C27.5 43.7754 27.4916 43.6067 27.5276 43.5429C27.5708 43.4663 27.5663 43.1681 27.5278 42.8689C27.4831 42.5501 27.4424 42.1017 27.4431 41.8555C27.4292 41.4208 27.4044 40.4545 27.3564 39.131C27.3219 37.8144 27.3052 36.8029 27.3142 36.5115C27.3253 36.3693 27.3343 36.0779 27.334 35.864C27.34 35.6698 27.3599 35.0222 27.3787 34.4071L27.4187 33.3259L28.3512 32.6848C28.8726 32.3432 29.4497 31.9642 29.6444 31.8336C29.8392 31.703 30.0896 31.5352 30.2009 31.4606C30.6048 31.1739 34.3043 28.9392 34.9897 28.5828C35.1494 28.4836 35.7935 28.1389 36.4026 27.8257C37.0189 27.4997 37.5806 27.1786 37.6568 27.1354C37.7753 27.048 39.0976 26.3597 39.3254 26.2624C39.5532 26.1652 50.8973 31.8856 51.528 32.4219ZM34.4924 24.8097C34.2285 24.9708 33.6669 25.2918 33.2371 25.5324C32.8146 25.7602 32.1489 26.1431 31.7738 26.3788C31.4121 26.6213 31.0318 26.8049 30.9225 26.8148C30.8338 26.8187 30.6947 26.912 30.6371 27.0141C30.5722 27.1289 30.2734 27.3213 29.9559 27.4549C29.6385 27.5885 29.3324 27.7937 29.2676 27.9085C29.2028 28.0233 29.0636 28.1166 28.9543 28.1264C28.8523 28.1235 28.5266 28.3022 28.2546 28.5084L27.7322 28.8824L27.8097 28.1328C27.8494 27.7257 27.9148 27.1507 27.9577 26.8603C28.0007 26.5699 28.1204 25.7761 28.2228 25.105C28.3117 24.427 28.4602 23.5823 28.5464 23.2153L28.7096 22.5589L30.8027 23.1691C31.9571 23.5129 33.3539 23.9479 33.8924 24.1576C34.4516 24.3614 34.9097 24.5299 34.9303 24.524C34.9571 24.5378 34.749 24.6615 34.4924 24.8097ZM58.8062 37.4437L60.7818 38.9968L60.5398 39.3334C60.3977 39.5238 59.9568 39.9066 59.5663 40.2002C59.1758 40.4937 58.8121 40.8009 58.7689 40.8775C58.6897 41.0178 57.5925 41.9199 56.4488 42.7819L55.8285 43.2374L55.831 42.7125C55.8399 42.4211 55.8238 41.8374 55.8305 41.3969C55.8166 40.9622 55.8096 40.301 55.8081 39.9056C55.7803 38.1485 55.676 36.2207 55.5922 36.0628C55.5736 36.0039 55.5796 35.8097 55.6196 35.6164C55.6697 35.3132 55.7244 35.3083 56.261 35.5827C56.5829 35.7474 57.7224 36.5769 58.8062 37.4437ZM24.8618 23.1886C24.7766 23.5231 24.6936 24.0069 24.6651 24.2718C24.6571 24.5308 24.5764 25.1636 24.4862 25.6601C24.1166 27.9374 24.0736 28.2278 24.1223 28.4171C24.1327 28.5211 24.1022 28.8508 24.0592 29.1412C24.0028 29.4247 23.9437 30.0193 23.937 30.4598C23.9134 31.4507 23.8702 31.5273 23.0139 32.1251C21.9351 32.8723 20.47 33.9973 20.3979 34.1248C20.3619 34.1886 20.0549 34.4262 19.7138 34.6628C19.3934 34.8935 18.9679 35.2184 18.7917 35.4079C18.3911 35.8113 15.9969 37.908 15.9144 37.9316C15.8114 37.9611 14.0924 36.2597 13.5873 35.6232C13.3446 35.3182 13.0741 35.0318 12.9936 34.9907C12.9132 34.9495 12.6829 34.6837 12.4866 34.4189C12.2976 34.1414 11.7936 33.4725 11.3877 32.936C10.989 32.3868 10.5975 31.8248 10.5406 31.6806C10.4765 31.5492 10.2502 31.1539 10.0281 30.843C9.79982 30.5125 9.6458 30.2035 9.68182 30.1397C9.71064 30.0887 9.67238 30.0034 9.5919 29.9622C9.36386 29.8456 8.56223 27.7749 8.32375 26.6663C8.07285 25.5186 8.16625 24.251 8.54084 23.5876C8.82179 23.09 9.82933 22.2243 10.4364 21.9758C10.9126 21.7754 13.159 21.1651 13.8302 21.048C15.4737 20.7706 19.2398 20.8061 21.512 21.1298C22.6177 21.2843 23.1261 21.3636 24.2174 21.5436L25.0921 21.6786L25.0441 22.1309C25.0228 22.383 24.947 22.854 24.8618 23.1886ZM64.3805 42.268C66.3968 44.2695 67.4026 45.4581 69.072 47.8904C70.0636 49.3184 71.4398 52.4229 71.2381 52.7801C71.2093 52.8311 71.2312 53.0067 71.3149 53.1647C71.4855 53.5972 71.3315 55.064 71.0506 55.5616C70.8057 55.9953 69.6178 56.9662 69.0663 57.1774C67.784 57.6724 65.9448 58.1128 64.6198 58.2243C64.2238 58.2519 63.8475 58.3061 63.7784 58.3365C63.6063 58.3964 58.8562 58.2358 58.0218 58.1214C56.6717 57.9405 54.6181 57.5971 54.6129 57.5451C54.5756 57.4274 54.8439 55.7889 54.9232 55.6485C54.9664 55.572 55.0277 55.1265 55.0488 54.6605C55.0627 54.2073 55.1313 53.7491 55.1889 53.647C55.2394 53.5577 55.3079 53.0995 55.3352 52.6531C55.3698 52.1939 55.445 51.2952 55.4989 50.6487C55.5528 50.0021 55.6353 49.0906 55.6564 48.6246C55.7255 47.7063 55.8181 47.5728 56.8537 46.9022C57.2082 46.6725 57.5287 46.4418 57.5719 46.3652C57.6079 46.3015 57.9706 46.0266 58.3395 45.7713C58.729 45.5102 59.071 45.2412 59.1142 45.1647C59.1575 45.0881 59.3882 44.8938 59.6386 44.7259C60.1951 44.3528 61.9434 42.8794 62.4151 42.3808C62.7251 42.0461 63.4802 41.4129 63.5339 41.4404C63.5339 41.4404 63.9242 41.8208 64.3805 42.268ZM51.7557 51.6442C51.6941 51.8758 51.6481 52.2633 51.633 52.5351C51.6213 53.1375 51.387 54.777 51.1891 55.6787C51.1029 56.0457 51.0219 56.4647 51.0107 56.6069C50.9831 56.8394 50.9079 56.8503 50.6262 56.7062C50.425 56.6033 49.4872 56.3045 48.5145 56.0371C47.5551 55.7766 46.28 55.371 45.6878 55.1338L44.5973 54.7076L44.9321 54.4513C45.1269 54.3208 45.3144 54.203 45.3897 54.1921C45.465 54.1813 45.7422 54.0271 46.0132 53.8534C46.2976 53.6864 46.7418 53.4204 47.0046 53.2917C47.288 53.1572 47.6621 52.9539 47.8435 52.8165C48.0382 52.6859 48.4618 52.4257 48.7946 52.2343C49.1141 52.0359 49.7736 51.6334 50.2662 51.3428C50.7454 51.0453 51.2102 50.7733 51.3205 50.731C51.4235 50.7016 51.5708 50.5632 51.6573 50.4101C51.7726 50.206 51.8118 50.2589 51.8391 50.7004C51.857 51.0055 51.8235 51.4323 51.7557 51.6442ZM23.6794 37.7435C23.6715 38.0025 23.6854 38.4371 23.7249 38.704C23.7582 38.9512 23.743 39.223 23.6926 39.3123C23.6494 39.3888 23.6529 39.7194 23.711 40.0451C23.7691 40.3708 23.7798 40.6887 23.7438 40.7525C23.6996 40.8614 23.8151 42.6469 23.9095 43.1227C23.9406 43.2208 23.9388 43.4994 23.9112 43.732L23.8777 44.1587L23.015 43.6352C22.1192 43.0784 18.9763 40.7145 18.8007 40.4438C18.6633 40.2584 19.1773 39.7156 20.6588 38.5004C21.1904 38.0488 21.8199 37.5158 22.0506 37.3214C22.2814 37.1271 22.7492 36.758 23.084 36.5017L23.6909 36.0394L23.6926 36.6486C23.6827 36.9724 23.6812 37.4649 23.6794 37.7435ZM50.1614 60.5297C48.8802 64.5439 48.8215 64.6783 47.0678 67.6617C45.4797 70.3516 45.3088 70.593 44.4044 71.4293C43.3598 72.3912 42.4355 72.9872 41.6108 73.223C40.9304 73.4176 39.6133 73.2701 38.9695 72.9407C38.306 72.5849 36.705 71.2563 36.1194 70.5786C35.4885 69.8284 34.2345 68.0689 34.0887 67.7148C34.039 67.5578 33.9347 67.4058 33.8944 67.3852C33.7469 67.3098 32.3525 64.5742 32.3327 64.3338C32.3294 64.2171 32.2385 64.0719 32.1446 64.0239C32.0373 63.969 31.9422 63.7394 31.9223 63.4991C31.9024 63.2587 31.8341 63.0429 31.767 63.0086C31.7134 62.9812 31.4838 62.4692 31.2707 61.8669C30.8434 60.6947 30.8218 60.7329 31.8331 60.4117C33.0299 60.0373 35.6027 59.002 37.6888 58.0632C38.3454 57.7577 39.1741 57.3924 39.5328 57.247C39.878 57.0948 40.2109 56.9033 40.2469 56.8395C40.2974 56.7502 40.6481 56.8639 41.1042 57.0972C41.52 57.3099 42.6848 57.7577 43.6896 58.0908C44.6944 58.4239 46.0294 58.8765 46.6556 59.1146C47.2891 59.34 48.2949 59.6407 48.8767 59.7739C50.2909 60.0862 50.3043 60.093 50.1614 60.5297ZM17.5209 43.9655C19.8639 45.7559 21.7784 47.0804 23.0838 47.8303C23.8536 48.2734 24.4543 48.6793 24.4183 48.7431C24.3895 48.7941 24.4093 49.0345 24.4632 49.2758C24.5244 49.5044 24.6553 50.3441 24.781 51.1319C24.9067 51.9196 25.0572 52.7859 25.1235 53.0664C25.1827 53.3598 25.2542 53.6923 25.2781 53.8032C25.4057 54.5262 25.7935 56.3194 25.9105 56.7245C25.984 56.9923 26.1053 57.4818 26.183 57.834L26.3477 58.4609L25.8869 58.6033C25.6323 58.6868 24.7683 58.8697 23.9734 59.0222C23.1785 59.1746 22.3496 59.3261 22.1372 59.3654C21.9248 59.4048 21.6237 59.4481 21.4598 59.4629C21.303 59.4649 20.6813 59.525 20.0801 59.5793C18.1189 59.7764 16.8309 59.7917 15.0787 59.6189C13.9102 59.5144 13.4295 59.4166 11.8439 58.9179C10.6699 58.5476 9.58187 57.5965 9.26937 56.6803C9.15759 56.3271 9.07884 56.0073 9.10765 55.9563C9.13647 55.9053 9.1238 55.6522 9.0843 55.3853C9.0448 55.1185 9.12329 54.3365 9.26066 53.634C9.5026 52.4095 9.56843 52.2623 11.1182 49.4871C12.523 46.9994 12.9018 46.4203 13.9481 45.1798C15.913 42.8635 16.0387 42.7634 16.3174 43.0046C16.4567 43.1252 16.9883 43.5615 17.5209 43.9655ZM35.8878 55.0373C35.7219 55.1169 35.322 55.274 35.0117 55.3949C34.6942 55.5284 34.2387 55.7229 33.9903 55.826C33.7346 55.9419 33.4244 56.0627 33.3069 56.1177C30.8526 57.0656 30.0465 57.3603 29.966 57.3192C29.8453 57.2574 29.1453 54.7618 29.2101 54.647C29.2317 54.6088 29.1902 54.4067 29.1291 54.1781C29.0608 53.9623 28.8867 53.1991 28.7446 52.5016L28.4977 51.2243L32.2762 53.0749C34.3636 54.0933 36.0888 54.9264 36.13 54.9146C36.1641 54.9156 36.0466 54.9706 35.8878 55.0373Z" fill="#E9E9E9"/>
<path d="M38.199 32.9642C37.376 33.0895 35.6811 33.8612 35.4811 34.1931C35.4194 34.3086 35.2819 34.3946 35.1753 34.394C34.7184 34.4056 33.382 36.2804 32.9938 37.4948C32.1558 40.0246 32.9756 42.8545 35.0356 44.5911C36.5351 45.8462 38.085 46.3629 40.1411 46.2743C41.4052 46.2243 41.7256 46.1249 43.3441 45.4107C43.9089 45.1679 45.3027 43.8584 45.7639 43.1515C46.963 41.3193 47.1025 38.4809 46.0798 36.4465C45.9293 36.1559 45.7634 35.9086 45.6873 35.9081C45.6264 35.9077 45.566 35.8204 45.5666 35.719C45.5672 35.6321 45.3255 35.3119 45.038 35.0349C43.5851 33.6207 42.2945 33.0332 40.331 32.9196C39.57 32.8714 38.6258 32.8945 38.199 32.9642Z" fill="#E9E9E9"/>
</g>
<defs>
<clipPath id="clip0_742_178">
<rect width="81" height="80" fill="white"/>
</clipPath>
</defs>
</svg>
