<svg width="84" height="51" viewBox="0 0 84 51" fill="none" xmlns="http://www.w3.org/2000/svg">
<g clip-path="url(#clip0_740_172)">
<path d="M34.0003 1.69998C29.8447 2.83332 19.6447 14.7333 21.5336 16.4333C21.9114 16.8111 24.7447 15.6778 27.7669 13.7889C33.2447 10.7666 33.8114 10.7666 37.9669 13.7889C40.4225 15.6778 45.3336 19.2666 48.9225 21.7222C58.3669 28.7111 70.2669 28.3333 77.6336 20.9666C83.8669 14.5444 85.7558 6.4222 79.7114 11.9C74.6114 16.6222 68.9447 15.8666 61.7669 9.44443C51.7558 0.755536 44.578 -1.32224 34.0003 1.69998Z" fill="#ECECEC"/>
<path d="M11.9002 27.3889C8.68905 28.7111 4.5335 32.4889 2.8335 35.7C-0.566502 42.3111 -0.377613 42.5 6.61128 38.9111C12.8446 35.7 15.8668 36.4556 25.1224 44.7667C30.9779 50.0556 33.6224 51 41.3668 51C51.5668 51 61.0113 45.1444 62.9002 37.7778C64.0335 33.2444 61.9557 32.8667 58.5557 36.8333C54.7779 41.3667 47.9779 40.2333 40.8002 33.8111C34.9446 28.7111 25.1224 24.3667 19.8335 24.5556C18.8891 24.7444 15.3002 25.8778 11.9002 27.3889Z" fill="#ECECEC"/>
</g>
<defs>
<clipPath id="clip0_740_172">
<rect width="83.1111" height="51" fill="white"/>
</clipPath>
</defs>
</svg>
