<svg width="73" height="73" viewBox="0 0 73 73" fill="none" xmlns="http://www.w3.org/2000/svg">
<path d="M28.7815 3.54798C19.1764 5.8681 11.2568 11.9856 6.55362 20.7325C5.60064 22.4965 4.31008 25.8697 3.77402 27.9378C2.78138 31.8122 2.52263 35.1309 2.88186 39.314C3.35263 44.7959 4.74563 49.1451 7.52279 53.7833C12.9021 62.8027 22.1456 68.7377 32.7551 70.0016C35.638 70.3317 41.0149 70.0229 43.8645 69.3704C47.5458 68.5105 50.6175 67.2782 53.7999 65.3567C63.4019 59.6385 69.4838 49.5328 70.1485 38.2781C70.2999 35.8862 69.8972 31.1971 69.3402 28.8661C65.8669 14.1436 53.3755 3.62789 38.2947 2.73103C36.0392 2.58488 30.8947 3.02667 28.7815 3.54798ZM37.6001 7.70131C40.9086 7.84199 44.2142 8.54363 47.1711 9.73401C48.5967 10.3082 51.7701 12.0408 52.8574 12.831L53.5828 13.3634L52.9771 13.4324C50.3472 13.6752 48.2912 16.2476 48.481 19.052C48.5511 20.0655 48.6432 20.3464 49.294 21.395C49.7076 22.0561 50.8162 23.4902 51.7596 24.5816C53.6616 26.7462 54.4141 27.9899 54.9898 29.9455C55.5174 31.7353 55.7685 34.8572 55.5404 36.9498C55.307 39.1788 52.9619 50.8497 52.6872 51.2131C52.6424 51.2849 49.7498 44.9065 46.2897 37.0646C42.8113 29.2072 39.9408 22.691 39.8801 22.5773C39.8164 22.4298 40.2169 22.3444 41.5663 22.2285C43.0844 22.0982 43.3836 22.0215 43.7455 21.6846C44.2645 21.1982 44.2383 20.2999 43.6888 19.8373C43.3408 19.5444 43.1032 19.5478 34.737 20.2662L26.1346 21.005L25.8195 21.4908C25.4287 22.0851 25.5797 22.8538 26.1571 23.246C26.4642 23.4575 26.8579 23.4916 28.1061 23.3845L29.6916 23.2483L30.0874 24.0979C30.315 24.5711 31.6166 27.263 32.979 30.0686L35.4734 35.1728L33.2681 44.3169C32.052 49.3489 31.0334 53.5144 30.9717 53.5877C30.9269 53.6595 30.0986 51.9295 29.147 49.7513C28.1953 47.5731 25.3768 41.0694 22.8598 35.3045C20.3595 29.5381 18.244 24.6901 18.1789 24.5258C18.0391 24.2829 18.188 24.2362 19.8073 24.0971C21.3254 23.9668 21.6247 23.8901 21.9865 23.5531C22.5055 23.0668 22.4793 22.1685 21.9298 21.7059C21.5818 21.4129 21.3443 21.4164 16.4864 21.8335L11.4093 22.2695L11.8868 21.4979C14.9699 16.4414 19.7943 12.2719 25.2196 9.95393C26.86 9.26932 29.7567 8.37487 31.2126 8.11391C32.9369 7.8129 35.8424 7.61436 37.6001 7.70131ZM10.5866 30.4963C12.5188 34.5953 24.8629 60.8071 25.465 62.0807C26.0855 63.3698 26.1361 63.3654 24.0275 62.3571C12.4679 56.757 5.95353 44.2157 8.07299 31.6976C8.43892 29.6272 9.02124 27.5042 9.18898 27.6767C9.26224 27.7384 9.89812 29.0091 10.5866 30.4963ZM63.5866 26.9643C64.5113 29.6206 64.7732 30.8895 65.0359 34.1463C65.2547 36.6933 65.2669 37.6268 65.0965 39.2047C64.2688 46.5823 61.0259 52.9438 55.5861 57.8628C54.9857 58.3902 54.3685 58.9189 54.207 59.0178C53.9979 59.1547 54.9616 54.9429 57.7222 43.5592C61.3314 28.6023 61.8944 26.0562 61.9837 24.1284L62.0293 23.2749L62.5452 24.3351C62.8166 24.9235 63.292 26.1061 63.5866 26.9643ZM41.2325 47.626C43.2101 51.857 45.6018 56.9531 46.5192 58.9303C47.4535 60.9061 48.2085 62.5744 48.2128 62.625C48.2273 62.7937 45.3759 63.8202 43.6815 64.2715C41.5389 64.8464 38.1418 65.257 36.03 65.2005C34.309 65.1444 31.7017 64.8585 30.9364 64.6524C30.5874 64.5464 30.6765 64.1989 32.8102 56.1995C34.0302 51.6089 35.5498 45.956 36.1668 43.6431C36.923 40.7745 37.3401 39.4983 37.4558 39.6583C37.5363 39.8043 39.2366 43.3795 41.2325 47.626Z" fill="#E9E9E9"/>
</svg>
