<svg width="137" height="137" viewBox="0 0 137 137" fill="none" xmlns="http://www.w3.org/2000/svg">
<path d="M1.00054 2.59624C0.783643 3.11366 0.95085 33.3908 1.31462 69.8547L2.06307 136.152L69.0988 135.619L136.135 135.085L135.601 68.0497L135.068 1.01395L68.1777 1.3251C15.0636 1.60032 1.21567 1.85783 1.00054 2.59624ZM129.708 68.0966L130.194 129.239L69.0519 129.726L7.90944 130.212L7.20787 69.8079C6.86989 36.5852 6.72378 8.96003 6.94067 8.44261C7.15581 7.7042 19.8251 7.45606 68.2246 7.21835L129.222 6.95408L129.708 68.0966Z" fill="#FAFAFA" fill-opacity="0.18"/>
<path d="M97.6326 64.3738C93.3664 65.2181 90.7987 66.5646 88.3151 69.2365C87.0003 70.6467 85.9058 71.9815 85.8351 72.3504C85.8375 72.645 85.696 73.3829 85.4797 73.9739C84.4765 77.5181 84.4245 80.2443 85.2612 83.5528C85.7927 85.5377 86.4692 87.2267 86.8375 87.2238C87.2058 87.2209 87.504 87.6605 87.5081 88.1762C87.5163 89.2075 90.7828 92.3493 91.8878 92.3405C92.2561 92.3376 92.7004 92.6288 92.8501 92.9222C93.1506 93.6566 102.469 98.15 103.574 98.1412C104.237 98.1359 105.348 98.9375 108.833 101.783C109.798 102.659 110.052 106.783 109.178 108.116C108.379 109.448 104.121 111.397 102.206 111.413C99.2594 111.436 94.8219 109.261 92.3692 106.555C90.3627 104.361 89.9189 104.143 89.0425 105.108C88.4579 105.702 87.2845 106.375 86.4029 106.676C84.0514 107.432 82.0058 109.584 82.3841 110.834C82.8372 112.23 87.5882 116.76 89.7344 117.995C93.3599 119.955 97.2706 120.734 102.5 120.546C108.907 120.347 110.82 119.964 113.458 118.248C115.583 116.758 120.114 112.228 120.182 111.417C120.179 111.122 120.32 110.237 120.534 109.425C121.952 102.415 120.587 97.5638 115.911 93.1808C114.055 91.4275 112.055 89.97 111.465 89.9747C110.876 89.9794 110.358 89.6888 110.355 89.3205C110.352 88.9521 109.538 88.4429 108.505 88.2301C107.471 87.9437 104.514 86.6411 101.924 85.1883C96.0053 82.0676 94.5103 79.3537 96.7693 76.2416C99.1014 73.0552 105.511 73.0779 107.23 76.232C108.128 77.9193 110.27 78.639 110.259 77.313C110.257 77.0183 110.697 76.7201 111.212 76.716C111.728 76.7119 112.901 76.0396 113.779 75.2222C114.657 74.4049 115.683 73.7337 116.125 73.7301C116.493 73.7272 116.857 73.2086 116.852 72.5456C116.841 71.2196 112.235 66.394 110.983 66.404C110.541 66.4075 110.17 66.0421 110.167 65.6738C110.163 65.2318 109.941 65.0126 109.647 65.0886C109.278 65.0915 108.541 65.0237 107.949 64.7337C106.028 64.0123 100.28 63.837 97.6326 64.3738Z" fill="#FAFAFA" fill-opacity="0.18"/>
<path d="M34.4675 69.7383L34.7283 74.7458L42.4632 74.6843L50.1981 74.6227L50.7481 97.4562L51.2981 120.29L56.3092 120.471C59.036 120.596 61.3196 120.578 61.3184 120.431C61.3909 120.283 61.6029 109.894 61.7243 97.3688L61.9846 74.529L69.5003 74.6902L76.9429 74.9257L77.1959 69.6931L77.3753 64.461L55.7913 64.6328L34.2072 64.8045L34.4675 69.7383Z" fill="#FAFAFA" fill-opacity="0.18"/>
<path d="M1.00054 2.59624C0.783643 3.11366 0.95085 33.3908 1.31462 69.8547L2.06307 136.152L69.0988 135.619L136.135 135.085L135.601 68.0497L135.068 1.01395L68.1777 1.3251C15.0636 1.60032 1.21567 1.85783 1.00054 2.59624ZM129.708 68.0966L130.194 129.239L69.0519 129.726L7.90944 130.212L7.20787 69.8079C6.86989 36.5852 6.72378 8.96003 6.94067 8.44261C7.15581 7.7042 19.8251 7.45606 68.2246 7.21835L129.222 6.95408L129.708 68.0966Z" fill="#FAFAFA"/>
<path d="M97.6326 64.3738C93.3664 65.2181 90.7987 66.5646 88.3151 69.2365C87.0003 70.6467 85.9058 71.9815 85.8351 72.3504C85.8375 72.645 85.696 73.3829 85.4797 73.9739C84.4765 77.5181 84.4245 80.2443 85.2612 83.5528C85.7927 85.5377 86.4692 87.2267 86.8375 87.2238C87.2058 87.2209 87.504 87.6605 87.5081 88.1762C87.5163 89.2075 90.7828 92.3493 91.8878 92.3405C92.2561 92.3376 92.7004 92.6288 92.8501 92.9222C93.1506 93.6566 102.469 98.15 103.574 98.1412C104.237 98.1359 105.348 98.9375 108.833 101.783C109.798 102.659 110.052 106.783 109.178 108.116C108.379 109.448 104.121 111.397 102.206 111.413C99.2594 111.436 94.8219 109.261 92.3692 106.555C90.3627 104.361 89.9189 104.143 89.0425 105.108C88.4579 105.702 87.2845 106.375 86.4029 106.676C84.0514 107.432 82.0058 109.584 82.3841 110.834C82.8372 112.23 87.5882 116.76 89.7344 117.995C93.3599 119.955 97.2706 120.734 102.5 120.546C108.907 120.347 110.82 119.964 113.458 118.248C115.583 116.758 120.114 112.228 120.182 111.417C120.179 111.122 120.32 110.237 120.534 109.425C121.952 102.415 120.587 97.5638 115.911 93.1808C114.055 91.4275 112.055 89.97 111.465 89.9747C110.876 89.9794 110.358 89.6888 110.355 89.3205C110.352 88.9521 109.538 88.4429 108.505 88.2301C107.471 87.9437 104.514 86.6411 101.924 85.1883C96.0053 82.0676 94.5103 79.3537 96.7693 76.2416C99.1014 73.0552 105.511 73.0779 107.23 76.232C108.128 77.9193 110.27 78.639 110.259 77.313C110.257 77.0183 110.697 76.7201 111.212 76.716C111.728 76.7119 112.901 76.0396 113.779 75.2222C114.657 74.4049 115.683 73.7337 116.125 73.7301C116.493 73.7272 116.857 73.2086 116.852 72.5456C116.841 71.2196 112.235 66.394 110.983 66.404C110.541 66.4075 110.17 66.0421 110.167 65.6738C110.163 65.2318 109.941 65.0126 109.647 65.0886C109.278 65.0915 108.541 65.0237 107.949 64.7337C106.028 64.0123 100.28 63.837 97.6326 64.3738Z" fill="#FAFAFA"/>
<path d="M34.4675 69.7383L34.7283 74.7458L42.4632 74.6843L50.1981 74.6227L50.7481 97.4562L51.2981 120.29L56.3092 120.471C59.036 120.596 61.3196 120.578 61.3184 120.431C61.3909 120.283 61.6029 109.894 61.7243 97.3688L61.9846 74.529L69.5003 74.6902L76.9429 74.9257L77.1959 69.6931L77.3753 64.461L55.7913 64.6328L34.2072 64.8045L34.4675 69.7383Z" fill="#FAFAFA"/>
</svg>
