<svg width="78" height="73" viewBox="0 0 78 73" fill="none" xmlns="http://www.w3.org/2000/svg">
<g clip-path="url(#clip0_746_181)">
<path d="M49.4973 3.75293C49.1206 3.95971 48.4211 4.56762 47.9113 5.10249C47.4163 5.63641 46.439 6.65778 45.7296 7.37284C44.6247 8.52414 43.4197 9.75794 42.4869 10.7765C42.3169 10.9548 41.6083 11.685 40.9137 12.3991C40.2192 13.1132 39.2419 14.1346 38.7328 14.6846C38.223 15.2195 37.5292 15.9488 37.1745 16.3063C36.8206 16.679 35.7439 17.798 34.7814 18.8185C33.8189 19.8389 32.6428 21.0556 32.1605 21.5431C31.6923 22.0144 30.6015 23.1496 29.7377 24.0572C28.8888 24.9638 27.487 26.4385 26.6218 27.3157C24.4818 29.5225 23.9311 30.1361 24.0081 30.192C24.0547 30.2346 26.4364 31.8773 29.3087 33.8384C32.1818 35.8147 34.6093 37.4849 34.7167 37.5541C34.8402 37.6526 35.2578 37.3672 36.0857 36.6445C36.7415 36.0546 38.3692 34.6415 39.6964 33.4759C42.166 31.324 43.6356 30.0276 44.4057 29.3391C44.6483 29.1257 44.905 28.8962 44.9762 28.8307C48.1899 26.0681 49.7174 24.7375 49.845 24.6076C49.9303 24.526 50.8873 23.7038 51.9444 22.799L53.888 21.1526L53.5255 13.4915C53.3008 8.74322 53.1063 5.57547 52.9825 5.15736C52.768 4.39509 52.1874 3.74762 51.4766 3.48892C50.7954 3.22832 50.264 3.30808 49.4973 3.75293Z" fill="#B7B7B7"/>
<path d="M15.4143 39.2053C15.303 39.3645 14.6103 40.1084 13.874 40.8704C12.2456 42.5563 10.7454 44.1275 10.5333 44.354C10.4481 44.4355 9.78288 45.132 9.04654 45.8939C6.68177 48.3418 5.92011 49.1965 5.73287 49.6343C5.43721 50.2919 5.56245 51.6828 5.96352 52.3109C6.39565 52.9674 10.3998 56.2837 11.1722 56.599C11.8241 56.8765 13.1244 56.7322 13.6107 56.3361C14.5988 55.558 15.498 54.7856 17.7236 52.8485C19.0929 51.6506 21.2043 49.8121 22.4171 48.7611C23.6299 47.7101 24.6997 46.7747 24.7695 46.679C24.8688 46.5814 24.7721 46.4203 24.5103 46.2242C24.2795 46.0566 22.2231 44.3487 19.9183 42.4135C17.6142 40.4934 15.7131 38.9276 15.6834 38.9295C15.6538 38.9314 15.5411 39.0603 15.4143 39.2053Z" fill="#B7B7B7"/>
<path d="M49.0202 3.78098C48.878 3.9116 48.8231 4.00624 48.8971 4.0015C48.9859 3.9958 49.1739 3.89262 49.3162 3.76201C49.4732 3.63044 49.5273 3.52066 49.4534 3.5254C49.3646 3.5311 49.1772 3.64942 49.0202 3.78098Z" fill="#DEDEDE"/>
<path d="M51.7621 3.58798C51.7636 3.61832 51.9959 3.81639 52.2747 4.0571L52.7696 4.4665L52.3163 3.99358C51.8799 3.56521 51.7564 3.46665 51.7621 3.58798Z" fill="#DEDEDE"/>
<path d="M9.4562 21.9417C8.99217 22.1845 8.82156 22.3475 6.64123 24.6325C4.67236 26.6757 4.35673 27.2284 4.42537 28.3649C4.4469 28.8199 4.57716 29.3744 4.70717 29.6094C4.98342 30.1089 6.6404 31.5238 15.564 38.9071C19.3072 42.0136 23.2826 45.3181 24.3818 46.2516C25.4958 47.1841 27.8941 49.1903 29.7191 50.7009C31.544 52.2115 33.9112 54.1893 34.9787 55.0792C37.2068 56.9442 45.9158 64.1892 49.6279 67.2672C52.1186 69.3436 53.0207 69.8789 53.8807 69.8389C54.577 69.7942 55.5853 69.121 55.8974 68.4925C56.1544 67.9587 56.1556 67.6696 55.8142 59.8267L55.4599 51.7107L45.0937 44.6177C34.9429 37.6783 25.6666 31.3217 23.0695 29.5108C21.8554 28.6607 17.663 25.7961 13.777 23.1247C12.8551 22.4841 11.8761 21.8928 11.6037 21.7886C11.0144 21.5831 9.99216 21.6487 9.4562 21.9417Z" fill="#DEDEDE"/>
<path d="M50.2552 3.12526L49.7465 3.43226L50.5075 3.39907C51.3423 3.34593 52.0455 3.66732 52.6179 4.37845L52.9513 4.7844L54.5026 36.2968L56.039 67.8101L55.7438 68.5154C55.2453 69.6609 54.0177 70.2577 52.9098 69.9163C52.2415 69.6995 52.3262 69.9077 53.0451 70.2433C53.5807 70.4991 53.9265 70.5381 54.9693 70.4565C56.2066 70.3777 56.2804 70.3578 58.0556 69.3294C62.8006 66.6169 65.9593 64.8139 66.004 64.8111C66.0338 64.8092 67.1108 64.1914 68.4205 63.4367C70.9952 61.9303 71.5839 61.4199 72.0653 60.2297L72.3868 59.4465L71.251 35.6884C70.1341 12.3257 70.1145 11.9151 69.7785 11.1431C69.2546 9.87969 68.5248 9.31589 66.2036 8.30416C65.0586 7.81256 64.0529 7.41889 63.9485 7.42553C63.8442 7.43217 63.766 7.36087 63.7623 7.28482C63.758 7.19356 63.6507 7.13936 63.5165 7.1479C63.3824 7.15644 62.545 6.84359 61.6585 6.44233C60.7579 6.05723 59.4147 5.4867 58.6519 5.1691C57.9047 4.86577 56.2575 4.19254 55.0224 3.69142C53.0087 2.85845 52.6451 2.75954 51.7492 2.78606C51.0173 2.80214 50.6326 2.88765 50.2552 3.12526Z" fill="white"/>
</g>
<defs>
<clipPath id="clip0_746_181">
<rect width="78" height="73" fill="white"/>
</clipPath>
</defs>
</svg>
